<svg width="29" height="29" viewBox="0 0 29 29" fill="none" xmlns="http://www.w3.org/2000/svg">
<path d="M14.205 28.6414C13.808 28.6414 13.4253 28.4754 13.127 28.1738C12.0006 27.0366 10.9145 25.9679 9.95632 25.0253L9.95142 25.0203C7.14216 22.2565 4.71625 19.8696 3.02835 17.5183C1.14154 14.8898 0.262695 12.3976 0.262695 9.67494C0.262695 7.02969 1.04835 4.58928 2.47479 2.80294C3.91825 0.995469 5.89889 0 8.05248 0C9.66209 0 11.1362 0.587506 12.4337 1.74606C13.0885 2.33087 13.6821 3.04658 14.205 3.88142C14.7281 3.04658 15.3215 2.33087 15.9765 1.74606C17.274 0.587506 18.7481 0 20.3577 0C22.5111 0 24.492 0.995469 25.9354 2.80294C27.3619 4.58928 28.1473 7.02969 28.1473 9.67494C28.1473 12.3976 27.2687 14.8898 25.3819 17.5181C23.694 19.8696 21.2683 22.2562 18.4594 25.0199C17.4995 25.964 16.4118 27.0344 15.2828 28.1743C14.9847 28.4754 14.6018 28.6414 14.205 28.6414ZM8.05248 1.88582C6.36054 1.88582 4.80624 2.66539 3.67551 4.08111C2.52798 5.51819 1.89592 7.5047 1.89592 9.67494C1.89592 11.9648 2.63307 14.0127 4.28587 16.3151C5.88336 18.5406 8.25948 20.8783 11.0107 23.5852L11.0158 23.5901C11.9776 24.5365 13.0679 25.6093 14.2027 26.7549C15.3442 25.6071 16.4362 24.5326 17.4 23.5847C20.1509 20.8778 22.5269 18.5406 24.1243 16.3151C25.7769 14.0127 26.5141 11.9648 26.5141 9.67494C26.5141 7.5047 25.882 5.51819 24.7345 4.08111C23.604 2.66539 22.0495 1.88582 20.3577 1.88582C19.1183 1.88582 17.9803 2.34069 16.9756 3.23767C16.0801 4.03739 15.4564 5.04833 15.0907 5.75569C14.9026 6.11945 14.5716 6.91646 14.205 6.91646C13.8384 6.91646 13.5074 6.11945 13.3194 5.75569C12.9539 5.04833 12.3301 4.03739 11.4345 3.23767C10.4297 2.34069 9.29171 1.88582 8.05248 1.88582Z" fill="#11182E"/>
</svg>
