<svg width="16" height="14" viewBox="0 0 16 14" fill="none" xmlns="http://www.w3.org/2000/svg">
<path fill-rule="evenodd" clip-rule="evenodd" d="M8.13708 0.75C8.13708 0.335786 7.80129 0 7.38708 0C6.97286 0 6.63708 0.335786 6.63708 0.75V6.5H1.08008C0.665865 6.5 0.330078 6.83579 0.330078 7.25C0.330078 7.66421 0.665865 8 1.08008 8H6.63708V13.25C6.63708 13.6642 6.97286 14 7.38708 14C7.80129 14 8.13708 13.6642 8.13708 13.25V8H14.2965C14.7108 8 15.0465 7.66421 15.0465 7.25C15.0465 6.83579 14.7108 6.5 14.2965 6.5H8.13708V0.75Z" fill="#11182E"/>
</svg>
