<svg width="69" height="86" viewBox="0 0 69 86" fill="none" xmlns="http://www.w3.org/2000/svg">
<g clip-path="url(#clip0)">
<path d="M54.5207 47.7225C57.1583 41.0285 58.1171 33.3471 57.2222 26.0916C56.2953 18.5708 53.5304 12.0338 49.2363 7.18819C49.0711 7.0012 48.8484 6.86038 48.5948 6.78261C48.3411 6.70485 48.0674 6.69344 47.8063 6.74975C41.0251 8.20142 34.2601 11.8165 28.2512 17.209C22.4427 22.4092 17.7994 28.961 15.1618 35.655C10.291 48.017 12.579 59.7871 21.9532 70.6471L19.2455 77.5193C19.1231 77.8299 19.1452 78.1707 19.307 78.4665C19.4687 78.7623 19.7569 78.9889 20.1081 79.0966C20.4592 79.2043 20.8446 79.1841 21.1795 79.0406C21.5144 78.897 21.7713 78.6419 21.8937 78.3312L24.6014 71.4591C39.5798 68.0656 49.65 60.0846 54.5207 47.7225ZM17.7994 36.4637C18.5331 34.6101 19.4057 32.8016 20.4113 31.0502L30.3667 49.2638L27.2417 57.1948L17.0499 38.5569C17.2764 37.8613 17.5225 37.1665 17.7994 36.4637ZM26.438 22.7449L34.7974 38.0185L31.6725 45.9496L22.062 28.3773C23.3717 26.4128 24.8339 24.5309 26.438 22.7449ZM54.0278 23.7783C54.0172 23.7811 54.007 23.785 53.9975 23.79L41.213 29.2688L44.3379 21.3378L52.3899 17.8863C53.1006 19.8113 53.6481 21.7808 54.0278 23.7783ZM53.2314 42.8091L32.3514 51.7594L35.4764 43.8283L54.5421 35.6557C54.3102 38.0657 53.8721 40.4571 53.2314 42.8091ZM31.0456 55.0736L52.2184 45.9978C52.099 46.3008 51.9913 46.6092 51.8726 46.9106C50.8384 49.5681 49.4634 52.1126 47.7745 54.4943L27.9207 63.0047L31.0456 55.0736ZM54.723 32.8263C54.7141 32.8236 54.698 32.8344 54.6855 32.8411L36.7822 40.5141L39.9072 32.5831L54.4303 26.3577C54.6938 28.5053 54.7916 30.6665 54.723 32.8263ZM51.4173 15.5487L45.6438 18.0235L48.557 10.6298C49.6779 12.1888 50.6353 13.8352 51.4173 15.5487ZM45.9089 9.81783L40.5341 23.459L35.7406 14.6931C39.0368 12.5195 42.49 10.8615 45.9089 9.81783ZM33.49 16.277L39.2282 26.7732L36.1033 34.7043L28.422 20.6574C29.0129 20.0719 29.6185 19.499 30.2389 18.9388C31.2893 18.0005 32.378 17.1107 33.49 16.277ZM16.2017 54.3894C15.2882 50.4441 15.2362 46.3795 16.0484 42.4143L25.9359 60.5091L23.0602 67.8076C19.5878 63.4677 17.2823 58.9639 16.2011 54.3909L16.2017 54.3894ZM25.7083 68.6195L26.6148 66.3189L44.052 58.8444C42.9564 59.9174 41.7768 60.921 40.5219 61.8477C36.4586 64.8434 31.4834 67.1149 25.7083 68.6195Z" fill="#FBFBFB"/>
<path d="M26.5564 66.4673L48.5571 10.6297L45.9089 9.8178L19.2301 77.5285C19.1077 77.8392 19.1298 78.1799 19.2915 78.4757C19.4533 78.7715 19.7415 78.9982 20.0926 79.1058C20.4438 79.2135 20.8292 79.1933 21.1641 79.0498C21.4989 78.9063 21.7558 78.6511 21.8782 78.3404L26.5552 66.4704L26.5564 66.4673Z" fill="#EA7307"/>
</g>
<defs>
<clipPath id="clip0">
<rect width="41.1784" height="77.7242" transform="matrix(0.956072 0.293133 -0.366584 0.930385 28.9053 0.74453)" fill="white"/>
</clipPath>
</defs>
</svg>
