<svg width="60" height="61" viewBox="0 0 60 61" fill="none" xmlns="http://www.w3.org/2000/svg">
<path fill-rule="evenodd" clip-rule="evenodd" d="M36.023 0.6409L59.3894 13.4746C59.7652 13.6859 60 14.0734 60 14.5078V22.6566C60 23.3023 59.4716 23.8307 58.8258 23.8307C58.18 23.8307 57.6516 23.3023 57.6516 22.6566V16.4922L50.9235 20.1908V27.5059C50.9235 27.9286 50.6887 28.316 50.3129 28.5274L45.3109 31.2867C45.1347 31.3806 44.9469 31.4276 44.7472 31.4276C44.5359 31.4276 44.3363 31.3689 44.1484 31.2632C43.7962 31.0519 43.5731 30.6644 43.5731 30.2534V24.2182L36.6336 28.0225V51.0245L57.6516 39.4824V32.0264C57.6516 31.3806 58.18 30.8523 58.8258 30.8523C59.4716 30.8523 60 31.3806 60 32.0264V40.1751C60 40.5978 59.7652 40.9853 59.3894 41.1967L36.023 54.0303C35.8469 54.1243 35.6473 54.1712 35.4594 54.1712C35.2715 54.1712 35.0719 54.1243 34.8958 54.0303L29.8468 51.2593C29.0718 52.9736 27.9915 54.5587 26.6177 55.9325C23.6235 58.9266 19.6313 60.5 15.5803 60.5C13.2672 60.5 10.9305 59.9834 8.74653 58.9149C8.15943 58.6331 7.9246 57.9403 8.2064 57.3532C8.48821 56.7661 9.18098 56.5313 9.76808 56.8131C14.8406 59.3023 20.9464 58.2808 24.9504 54.2769C27.4631 51.7759 28.837 48.4413 28.837 44.907C28.837 41.3611 27.4631 38.0382 24.9621 35.5372C22.4611 33.0245 19.1381 31.6507 15.5921 31.6507C12.046 31.6507 8.72305 33.0362 6.22202 35.5372C2.22977 39.5411 1.20822 45.635 3.68576 50.7192C3.96757 51.2945 3.73273 51.999 3.14563 52.2808C2.57028 52.5626 1.86577 52.3278 1.58396 51.7407C-1.33978 45.7642 -0.142102 38.5783 4.56641 33.8699C6.37466 32.0734 8.54692 30.7583 10.9188 30.0186V14.4961C10.9188 14.0734 11.1536 13.6859 11.5294 13.4746L25.5844 5.76027C25.7253 5.61937 25.9015 5.52544 26.0893 5.47847L34.8958 0.6409C35.248 0.453033 35.6707 0.453033 36.023 0.6409ZM56.3952 14.5078L35.4594 3.01272L28.8604 6.62916L49.7845 18.1243L56.3952 14.5078ZM14.5236 14.5078L35.4594 26.0029L42.3049 22.2456L21.3691 10.7505L14.5236 14.5078ZM23.8114 9.41194L44.7355 20.907L47.354 19.4628L26.4181 7.96771L23.8114 9.41194ZM15.5921 29.3141C19.7604 29.3141 23.6705 30.9344 26.6177 33.8816C29.5649 36.8288 31.1853 40.7388 31.1853 44.907C31.1853 46.316 31.0092 47.6898 30.6452 49.0166L34.2852 51.0127V28.0225L13.2554 16.4804V29.4902C14.0304 29.3728 14.8054 29.3141 15.5921 29.3141ZM45.9097 28.2691L48.5751 26.8014V21.4589L45.9097 22.9266V28.2691ZM11.7282 45.8461C11.553 46.0125 11.3341 46.1001 11.1064 46.1001C10.8788 46.1001 10.6599 46.0125 10.4935 45.8461L8.39188 43.7533C8.05036 43.4118 8.05036 42.8602 8.39188 42.5187L10.4935 40.4171C10.835 40.0756 11.3867 40.0756 11.7282 40.4171C12.0697 40.7586 12.0697 41.3103 11.7282 41.6518L11.124 42.256H16.2904C18.5058 42.256 20.3097 44.0598 20.3097 46.2752C20.3097 48.4906 18.5058 50.2944 16.2904 50.2944H13.2256C12.7439 50.2944 12.3499 49.9004 12.3499 49.4188C12.3499 48.9372 12.7439 48.5431 13.2256 48.5431H16.2904C17.5426 48.5431 18.5584 47.5274 18.5584 46.2752C18.5584 45.023 17.5426 44.0073 16.2904 44.0073H11.124L11.7282 44.6115C12.0697 44.953 12.0697 45.5046 11.7282 45.8461Z" fill="#FBFBFB"/>
</svg>
