<svg width="48" height="60" viewBox="0 0 48 60" fill="none" xmlns="http://www.w3.org/2000/svg">
<path fill-rule="evenodd" clip-rule="evenodd" d="M42.6514 22.4956H46.6503C47.3877 22.4956 47.9875 23.058 48 23.7493V54.9971C48 57.7622 45.6006 60 42.6639 60H5.33611C2.38688 60 0 57.7504 0 54.9971V23.7493C0 23.058 0.599843 22.4956 1.33715 22.4956H5.33611V17.4927C5.33611 7.85003 13.7089 0 23.9938 0C34.2786 0 42.6514 7.85003 42.6514 17.4927V22.4956ZM23.9938 2.49561C15.171 2.49561 7.99792 9.22086 7.99792 17.4927V22.4956H10.6597V17.4927C10.6597 10.6034 16.6457 4.99121 23.9938 4.99121C31.3418 4.99121 37.3278 10.6034 37.3278 17.4927V22.4956H39.9896V17.4927C39.9896 9.22086 32.8165 2.49561 23.9938 2.49561ZM34.6535 22.4956V17.4927C34.6535 11.9859 29.8672 7.49854 23.9938 7.49854C18.1203 7.49854 13.334 11.9742 13.334 17.4927V22.4956H34.6535ZM42.6639 57.481C44.126 57.481 45.3257 56.3679 45.3257 54.9854V24.9912H2.6743V54.9854C2.6743 56.3562 3.86149 57.481 5.33611 57.481H42.6639ZM20.0074 48.5999L20.8447 41.5114C19.4825 40.5858 18.6577 39.1096 18.6702 37.4927C18.6702 34.7276 21.0571 32.4897 24.0063 32.4897C26.9556 32.4897 29.3424 34.7393 29.3424 37.4927C29.3424 39.1096 28.5177 40.5858 27.1555 41.5114L27.9928 48.5999C28.0303 48.9514 27.9053 49.3029 27.6554 49.5724C27.4055 49.8418 27.043 49.9941 26.6681 49.9941H21.332C20.9571 49.9941 20.5947 49.8418 20.3448 49.5724C20.0824 49.3029 19.9699 48.9514 20.0074 48.5999ZM26.6556 37.4927C26.6556 36.1219 25.4685 34.9971 23.9938 34.9971C22.5192 34.9971 21.332 36.1101 21.332 37.4927C21.332 38.4534 21.9069 39.3087 22.8441 39.7305C23.3565 39.9649 23.6564 40.4687 23.5939 40.9959L22.8191 47.4868H25.1685L24.3937 40.9959C24.3313 40.4687 24.6312 39.9649 25.1435 39.7305C26.0808 39.3087 26.6556 38.4534 26.6556 37.4927Z" fill="#FBFBFB"/>
</svg>
