<svg width="60" height="61" viewBox="0 0 60 61" fill="none" xmlns="http://www.w3.org/2000/svg">
<path d="M54.9166 5.62085C51.6293 2.30937 47.2913 0.5 42.6484 0.5C38.0055 0.5 33.6675 2.32644 30.3802 5.62085C24.0427 12.0048 23.6022 22.2295 29.2788 29.1256C28.7196 30.2521 27.8215 31.5665 26.4998 32.2322C25.8559 32.5565 25.5 33.2393 25.6186 33.9392C25.7203 34.6561 26.2795 35.2023 26.9742 35.3218C27.2962 35.373 27.7707 35.4242 28.3468 35.4242C29.8718 35.4242 32.1425 35.0657 34.447 33.3929C37.0226 34.7926 39.8355 35.4754 42.6314 35.4754C47.1219 35.4754 51.5615 33.7173 54.9166 30.3546C58.2039 27.0431 60.0001 22.6733 60.0001 17.9962C60.0001 13.3192 58.187 8.91526 54.9166 5.62085ZM53.5102 28.9207C48.5622 33.905 40.8861 34.8951 34.8537 31.3275C34.4639 31.0886 33.9725 31.1568 33.6506 31.4811C33.6167 31.4982 33.5997 31.5153 33.5659 31.5324C31.5833 33.0857 29.6346 33.41 28.3298 33.41C29.821 32.3176 30.753 30.696 31.3122 29.4328C31.3969 29.2109 31.4138 28.989 31.363 28.7842C31.3461 28.5793 31.2613 28.3916 31.1258 28.2209C25.7542 22.11 26.0423 12.79 31.7697 7.02055C37.7682 0.977946 47.5116 0.977946 53.4932 7.02055C59.5087 13.0632 59.5087 22.8781 53.5102 28.9207Z" fill="#FBFBFB"/>
<path d="M42.6485 19.2083C43.3223 19.2083 43.8686 18.658 43.8686 17.9793C43.8686 17.3005 43.3223 16.7502 42.6485 16.7502C41.9747 16.7502 41.4285 17.3005 41.4285 17.9793C41.4285 18.658 41.9747 19.2083 42.6485 19.2083Z" fill="#FBFBFB"/>
<path d="M48.9349 19.2083C49.6087 19.2083 50.1549 18.658 50.1549 17.9793C50.1549 17.3005 49.6087 16.7502 48.9349 16.7502C48.2611 16.7502 47.7148 17.3005 47.7148 17.9793C47.7148 18.658 48.2611 19.2083 48.9349 19.2083Z" fill="#FBFBFB"/>
<path d="M36.3619 19.2083C37.0357 19.2083 37.5819 18.658 37.5819 17.9793C37.5819 17.3005 37.0357 16.7502 36.3619 16.7502C35.6881 16.7502 35.1418 17.3005 35.1418 17.9793C35.1418 18.658 35.6881 19.2083 36.3619 19.2083Z" fill="#FBFBFB"/>
<path d="M35.9655 43.045C35.0327 42.0627 33.902 41.5501 32.7148 41.5501C31.5276 41.5501 30.3969 42.0627 29.4217 43.045L26.383 46.0918C26.1286 45.9494 25.8884 45.8355 25.6481 45.7074C25.3089 45.5366 24.9697 45.3657 24.7012 45.1949C21.8603 43.3725 19.2739 40.9949 16.7865 37.9339C15.5851 36.3963 14.7795 35.1149 14.1859 33.8051C14.9774 33.079 15.7123 32.3244 16.419 31.5983C16.6875 31.3278 16.9561 31.0431 17.2246 30.7726C19.2457 28.7367 19.2457 26.1028 17.2246 24.0669L14.5958 21.4187C14.299 21.1198 13.988 20.8065 13.7054 20.4933C13.1259 19.8954 12.5182 19.2689 11.8963 18.6852C10.9635 17.7598 9.84697 17.2615 8.67389 17.2615C7.50082 17.2615 6.37015 17.7598 5.40908 18.6852C5.39495 18.6994 5.39495 18.6994 5.39495 18.6994L2.13014 22.0309C0.900531 23.2696 0.193862 24.7787 0.0383943 26.5299C-0.18774 29.3631 0.631997 31.997 1.268 33.7197C2.82267 37.9481 5.15468 41.8776 8.61736 46.0776C12.8291 51.146 17.903 55.1467 23.6836 57.9656C25.8884 59.0192 28.8422 60.2721 32.1495 60.4856C32.3473 60.4999 32.5593 60.4999 32.7572 60.4999C34.9761 60.4999 36.8417 59.7026 38.3116 58.0938C38.3257 58.0795 38.3399 58.0653 38.354 58.0511C38.8487 57.4389 39.4281 56.8836 40.0359 56.2999C40.4458 55.9012 40.8698 55.4884 41.2796 55.047C42.2266 54.0504 42.7354 52.883 42.7354 51.7013C42.7354 50.5053 42.2266 49.3521 41.2514 48.384L35.9655 43.045ZM39.414 53.2389C39.3999 53.2389 39.3999 53.2531 39.414 53.2389C39.0324 53.6518 38.6508 54.0077 38.2409 54.4206C37.6191 55.0185 36.9831 55.645 36.3895 56.3568C35.4143 57.3961 34.2695 57.8945 32.7713 57.8945C32.63 57.8945 32.4745 57.8945 32.3332 57.8802C29.4782 57.6951 26.8212 56.5704 24.8284 55.6165C19.387 52.9684 14.6099 49.1955 10.6384 44.4118C7.35949 40.4254 5.16881 36.7522 3.71307 32.7943C2.82267 30.3882 2.4976 28.5089 2.63894 26.7292C2.73787 25.5902 3.16187 24.6506 3.96748 23.8533L7.24642 20.5503C7.71282 20.1089 8.22163 19.8669 8.70216 19.8669C9.3099 19.8669 9.80457 20.2371 10.1014 20.5503C10.1155 20.5645 10.1155 20.5645 10.1296 20.5787C10.7232 21.134 11.2744 21.7035 11.8539 22.3157C12.1507 22.6289 12.4616 22.9421 12.7726 23.2553L15.4014 25.9035C16.419 26.9285 16.419 27.8824 15.4014 28.9075C15.1187 29.1923 14.8502 29.4628 14.5675 29.7475C13.7619 30.5875 12.9846 31.3563 12.1507 32.1109C12.1366 32.1251 12.1083 32.1394 12.1083 32.1536C11.2744 32.9936 11.4299 33.8051 11.6136 34.3461C11.6278 34.3746 11.6278 34.4031 11.6419 34.4315C12.3203 36.0973 13.2814 37.6634 14.7513 39.5427L14.7654 39.5569C17.4225 42.8457 20.2209 45.4227 23.302 47.3874C23.6977 47.6437 24.0934 47.843 24.4892 48.0423C24.8284 48.2132 25.1676 48.384 25.4361 48.5548C25.4785 48.5691 25.5068 48.5976 25.5492 48.626C25.8742 48.7969 26.1852 48.8681 26.4961 48.8681C27.2876 48.8681 27.7964 48.3698 27.9518 48.1989L31.2449 44.8817C31.57 44.5542 32.0929 44.1556 32.7007 44.1556C33.2943 44.1556 33.7889 44.54 34.0857 44.8674C34.0999 44.8817 34.0999 44.8817 34.0999 44.8817L39.3999 50.2206C40.3892 51.203 40.3892 52.2138 39.414 53.2389Z" fill="#FBFBFB"/>
</svg>
