<svg width="64" height="65" viewBox="0 0 64 65" fill="none" xmlns="http://www.w3.org/2000/svg">
<g clip-path="url(#clip0)">
<path d="M61.0712 14.5352L32.2062 0.58705C31.9453 0.462845 31.6473 0.462845 31.3989 0.58705L2.52141 14.5352C2.19848 14.6966 1.99976 15.0196 1.99976 15.3798V49.2254C1.99976 49.5855 2.19848 49.9085 2.52141 50.0699L31.3989 64.0056C31.5231 64.0677 31.6597 64.0926 31.8087 64.0926C31.9454 64.0926 32.082 64.0677 32.2186 64.0056L61.0712 50.0575C61.3941 49.8961 61.5929 49.5731 61.5929 49.2129V15.3673C61.6053 15.0071 61.3941 14.6842 61.0712 14.5352ZM31.7963 2.46253L58.525 15.3673L50.7747 19.1059C50.725 19.0686 50.6753 19.0314 50.6132 19.0065L24.0708 6.20107L31.7963 2.46253ZM21.9718 7.24439L48.6632 20.1243L43.1982 22.7575L16.5068 9.88993L21.9718 7.24439ZM49.2842 21.9005V31.6505L44.1794 34.1097V24.3597L49.2842 21.9005ZM59.7422 48.6416L32.7278 61.683V29.8992L39.174 26.7941C39.6336 26.5705 39.8323 26.0116 39.6087 25.5521C39.3852 25.0925 38.8263 24.8938 38.3667 25.1173L31.7963 28.2721L29.2129 27.0301C28.7533 26.8065 28.1944 27.0053 27.9708 27.4648C27.7473 27.9244 27.946 28.4833 28.4055 28.7068L30.8648 29.8992V61.683L3.8504 48.6416V16.8578L24.4186 26.7817C24.5552 26.8438 24.6918 26.8686 24.8285 26.8686C25.1762 26.8686 25.5116 26.6699 25.673 26.347C25.8966 25.8874 25.6979 25.3285 25.2383 25.1049L5.0676 15.3673L14.3208 10.896L42.304 24.4094L42.3164 24.4218V35.6002C42.3164 35.9231 42.4779 36.2212 42.7511 36.3951C42.9001 36.4944 43.074 36.5317 43.2479 36.5317C43.3845 36.5317 43.5212 36.5069 43.6578 36.4448L50.6256 33.0788C50.9486 32.9174 51.1473 32.5944 51.1473 32.2342V20.9938L59.7422 16.8454V48.6416Z" fill="#FBFBFB"/>
<path d="M11.5387 45.0271L7.3033 42.9778C6.84374 42.7542 6.28482 42.9529 6.06126 43.4125C5.83769 43.872 6.03642 44.4309 6.49597 44.6545L10.7313 46.7039C10.868 46.766 11.0046 46.7908 11.1412 46.7908C11.489 46.7908 11.8243 46.5921 11.9858 46.2692C12.1969 45.8096 12.0106 45.2507 11.5387 45.0271Z" fill="#FBFBFB"/>
<path d="M15.4387 42.481L7.3033 38.5561C6.84374 38.3326 6.28482 38.5313 6.06126 38.9908C5.83769 39.4504 6.03642 40.0093 6.49597 40.2329L14.6313 44.1577C14.768 44.2198 14.9046 44.2447 15.0412 44.2447C15.389 44.2447 15.7243 44.0459 15.8858 43.723C16.0969 43.2635 15.9106 42.7045 15.4387 42.481Z" fill="#FBFBFB"/>
</g>
<defs>
<clipPath id="clip0">
<rect y="0.5" width="63.5925" height="63.5925" fill="white"/>
</clipPath>
</defs>
</svg>
