<svg width="48" height="20" viewBox="0 0 48 20" fill="none" xmlns="http://www.w3.org/2000/svg">
<path d="M8.603 3.25817C8.44589 2.77304 8.19736 2.37292 7.88884 2.07247C7.56699 1.76908 7.18705 1.55657 6.75284 1.43052C6.31101 1.30741 5.80062 1.25171 5.20929 1.24292L2.47928 1.24585C2.19552 1.25171 1.91747 1.59174 1.85082 2.01384L0.0139896 14.3281C-0.0526657 14.7443 0.125399 15.0932 0.40916 15.0932H1.71656C2.00032 15.0932 2.28122 14.7546 2.34407 14.3281L2.79256 11.3382C2.85255 10.922 3.13251 10.5746 3.41912 10.5746H3.79334C5.39212 10.5717 6.63 10.069 7.51938 9.06208C8.41351 8.05372 8.85439 6.72146 8.85439 5.07116C8.85343 4.3486 8.77631 3.74183 8.603 3.25817ZM5.78348 7.28134C5.38831 7.72689 4.83888 7.94966 4.13043 7.94966H3.81048C3.52577 7.94966 3.35152 7.60377 3.41341 7.18167L3.80668 4.56698C3.8619 4.14781 4.14852 3.80045 4.42943 3.80338L4.85793 3.79899C5.35784 3.79899 5.73968 3.93236 5.99487 4.19031C6.24721 4.44533 6.37386 4.85131 6.37195 5.3892C6.37957 6.20702 6.17675 6.83578 5.78348 7.28134Z" fill="#FBFBFB"/>
<path d="M45.8729 2.20724L45.791 2.24535L45.6815 2.2688L45.5472 2.23656L45.4786 2.13396L45.4472 1.97274L45.4453 1.73091V0.835411H45.8824V0.558405H45.4453V0H45.2292V0.558405H45.0825V0.835411H45.2292V1.87748L45.3301 2.39338L45.6272 2.55753L45.7519 2.54141L45.8843 2.50184V2.20724H45.8729Z" fill="#FBFBFB"/>
<path d="M47.9001 0.700544L47.5878 0.502686L47.3573 0.574501L47.1231 0.817794L46.9869 0.584761L46.766 0.50415L46.5536 0.575966L46.3527 0.775292V0.558377H46.1404V2.515H46.3518V1.05376L46.5298 0.883748L46.7069 0.81633L46.8517 0.855902L46.9231 0.968756L46.9545 1.15636L46.965 1.39819V2.51647H47.1773V1.26481L47.1735 1.16075L47.1697 1.06549L47.3507 0.888145L47.5297 0.819262L47.6696 0.858832L47.7458 0.971688L47.7725 1.16075L47.7868 1.39965V2.51793H48.0001V1.24723L47.9001 0.700544Z" fill="#FBFBFB"/>
<path d="M14.9078 5.01841C14.4145 4.59045 13.6356 4.37646 12.571 4.37646C12.0444 4.37646 11.5198 4.43949 10.9894 4.56553C10.598 4.65787 10.5599 4.67545 10.319 4.75606C9.82195 4.92314 9.74387 5.68674 9.74387 5.68674L9.5839 6.69949C9.49344 7.34584 9.7353 7.32092 9.83623 7.2667C10.0533 7.16703 10.1743 7.06444 10.618 6.91201C11.0417 6.76398 11.4883 6.65259 11.8426 6.65992C12.3653 6.65992 12.7653 6.74493 13.0319 6.91787C13.2947 7.09375 13.4261 7.39567 13.4261 7.83243L13.4032 8.11676L13.2147 8.29557C12.4729 8.36739 11.9368 8.47291 11.2865 8.61801C10.6504 8.75431 10.0924 8.99321 9.62865 9.32005C9.13064 9.65714 8.76118 10.11 8.50313 10.686C8.25365 11.2649 8.12891 11.967 8.12891 12.7907C8.12891 13.566 8.30983 14.2065 8.6612 14.7019C9.01447 15.1885 9.48106 15.4259 10.0391 15.4259C10.3923 15.423 10.6656 15.3804 10.8599 15.3086L11.4931 14.973L12.0292 14.5157L12.5224 14.0145L12.5291 14.0291L12.4796 14.3516L12.4767 14.3648V14.3677C12.4234 14.7605 12.5777 15.0829 12.8262 15.121L12.831 15.1298H12.8538H13.8565H14.045L14.0622 15.1181C14.3231 15.0712 14.5678 14.7488 14.6249 14.3648L15.5781 8.01417L15.6276 7.4968L15.6505 7.01168C15.6543 6.11178 15.402 5.44491 14.9078 5.01841ZM12.7995 12.159L12.5958 12.5723L12.0816 12.9812C11.8397 13.1322 11.6102 13.2084 11.3979 13.2084C11.076 13.2084 10.8237 13.1366 10.6532 12.99L10.4009 12.2352C10.4009 11.8263 10.4618 11.5024 10.5923 11.2532L11.1465 10.6728C11.3836 10.5497 11.6731 10.4457 12.0082 10.3738C12.3072 10.3167 12.8976 10.2126 12.9747 10.2097L13.0652 10.4545C13.0471 10.5937 12.8795 11.6724 12.7995 12.159Z" fill="#FBFBFB"/>
<path d="M38.6541 5.0272C38.158 4.59924 37.38 4.38379 36.3183 4.38379C35.7917 4.38379 35.2661 4.44681 34.7376 4.57725C34.3453 4.66519 34.3063 4.68425 34.0644 4.76339C33.5683 4.92901 33.4912 5.69553 33.4912 5.69553L33.3312 6.70682C33.2417 7.35317 33.4778 7.32385 33.5883 7.27402C33.8063 7.17436 33.9235 7.07616 34.3634 6.91787C34.7852 6.77131 35.2356 6.66285 35.5908 6.66578C36.1117 6.66578 36.5116 6.75226 36.7773 6.9252C37.042 7.10108 37.1715 7.40593 37.1715 7.83829L37.1515 8.12116L36.9649 8.30436C36.2155 8.37325 35.6784 8.47877 35.0347 8.62387C34.4005 8.76017 33.8406 8.99761 33.3759 9.32591C32.8798 9.66447 32.5056 10.1174 32.2504 10.6948C31.9981 11.2737 31.8752 11.9743 31.8752 12.7907C31.8752 13.5719 32.0543 14.2123 32.4104 14.7048C32.7656 15.1899 33.2274 15.4332 33.7854 15.4332C34.1368 15.4273 34.4101 15.3922 34.6053 15.3145L35.2366 14.9833L35.7774 14.526L36.2669 14.0189L36.2754 14.035L36.2307 14.3604L36.2259 14.3662L36.2278 14.3721C36.1688 14.7649 36.324 15.0902 36.5754 15.1254L36.5773 15.1328H36.6002C36.7649 15.1328 37.3343 15.1328 37.6057 15.1328H37.7904L37.8104 15.1225C38.0685 15.0741 38.3122 14.7517 38.3665 14.3633L39.3225 8.02149L39.373 7.50119L39.4006 7.0146C39.4016 6.11763 39.1521 5.4537 38.6541 5.0272ZM36.5506 12.1678L36.3383 12.5855L35.8289 12.9915C35.587 13.141 35.3566 13.2186 35.148 13.2186C34.8157 13.2186 34.57 13.1454 34.4043 12.9988L34.1491 12.2469C34.1491 11.8365 34.211 11.5156 34.3358 11.262C34.4624 11.0231 34.6557 10.8267 34.8957 10.6831C35.1299 10.56 35.4194 10.4603 35.7565 10.3856C36.0536 10.3284 36.6421 10.2214 36.7182 10.2199L36.8106 10.4647C36.7973 10.6039 36.6287 11.6783 36.5506 12.1678Z" fill="#FBFBFB"/>
<path d="M32.3457 3.30358C32.1819 2.81552 31.9362 2.42127 31.6258 2.11348C31.3077 1.80863 30.9307 1.59465 30.4898 1.47153C30.0565 1.35282 29.5395 1.28833 28.952 1.28687L26.2181 1.28979C25.9334 1.29712 25.6601 1.63715 25.5944 2.05486L23.7557 14.375C23.689 14.7927 23.8719 15.1386 24.1499 15.1386L25.4592 15.1356C25.7373 15.1386 26.022 14.7956 26.0877 14.3735L26.5305 11.3822C26.5952 10.9659 26.8761 10.6156 27.1589 10.6186H27.5331C29.1338 10.6186 30.3746 10.1114 31.2677 9.10749C32.1505 8.0918 32.597 6.76247 32.597 5.1107C32.5923 4.39108 32.5113 3.78284 32.3457 3.30358ZM29.5261 7.33261C29.1319 7.76937 28.5815 7.99214 27.8769 7.99214H27.5512C27.2703 7.99654 27.0885 7.64479 27.1513 7.22562L27.5474 4.61532C27.6055 4.19762 27.8893 3.84733 28.1721 3.85173L28.5958 3.84733C29.0986 3.85173 29.4757 3.97923 29.7328 4.23719C29.9889 4.49514 30.1098 4.89965 30.1127 5.43608C30.1156 6.2539 29.9185 6.88412 29.5261 7.33261Z" fill="#FBFBFB"/>
<path d="M43.5559 2.15307C43.6159 1.73243 43.4445 1.39094 43.1636 1.3968H41.9924C41.7524 1.3968 41.5363 1.67088 41.4306 2.00797L41.3658 2.16333L41.3068 2.56198L39.6699 14.0145L39.6166 14.3662L39.6185 14.375C39.5642 14.7517 39.7147 15.036 39.947 15.0902L39.967 15.1327H41.183C41.4211 15.1327 41.6448 14.8543 41.7467 14.5113L41.8096 14.3647L43.5598 2.15454L43.5559 2.15307Z" fill="#FBFBFB"/>
<path d="M23.7919 4.53044C23.4824 4.5363 22.2246 4.53044 22.2246 4.53044C21.9427 4.53044 21.5809 4.88073 21.4018 5.29843C21.4018 5.29843 19.5298 10.2435 19.3479 10.7403L19.1308 10.7359L18.548 5.33214C18.4833 4.90711 18.1948 4.54363 17.8358 4.54363L16.6645 4.54656C16.3827 4.54656 16.2094 4.89245 16.2732 5.31455C16.2732 5.31455 17.1626 13.1044 17.3406 14.9379C17.4235 15.9492 17.3301 16.1295 17.3301 16.1295L16.1722 19.2337C16.0009 19.6558 16.0932 20.0002 16.3741 20.0002L17.7282 19.9973C18.01 19.9973 18.3804 19.6558 18.548 19.2322L23.7567 5.67217C23.7567 5.67363 24.2575 4.51432 23.7919 4.53044Z" fill="#FBFBFB"/>
</svg>
