<svg width="25" height="25" viewBox="0 0 25 25" fill="none" xmlns="http://www.w3.org/2000/svg">
<path d="M18.2327 0H6.76727C3.03574 0 0 3.03574 0 6.76727V18.2329C0 21.9643 3.03574 25 6.76727 25H18.2329C21.9643 25 25 21.9643 25 18.2329V6.76727C25 3.03574 21.9643 0 18.2327 0V0ZM23.5344 18.2329C23.5344 21.1561 21.1561 23.5344 18.2327 23.5344H6.76727C3.84388 23.5344 1.46561 21.1561 1.46561 18.2329V6.76727C1.46561 3.84388 3.84388 1.46561 6.76727 1.46561H18.2329C21.1561 1.46561 23.5344 3.84388 23.5344 6.76727V18.2329Z" fill="#FBFBFB"/>
<path d="M12.5001 5.66431C8.73075 5.66431 5.66431 8.73075 5.66431 12.5C5.66431 16.2693 8.73075 19.3358 12.5001 19.3358C16.2694 19.3358 19.3358 16.2693 19.3358 12.5C19.3358 8.73075 16.2694 5.66431 12.5001 5.66431ZM12.5001 17.8702C9.53908 17.8702 7.12991 15.4612 7.12991 12.5C7.12991 9.53908 9.53908 7.12991 12.5001 7.12991C15.4612 7.12991 17.8702 9.53908 17.8702 12.5C17.8702 15.4612 15.4612 17.8702 12.5001 17.8702Z" fill="#FBFBFB"/>
<path d="M19.4994 3.23657C18.3855 3.23657 17.4795 4.14276 17.4795 5.25646C17.4795 6.37035 18.3855 7.27653 19.4994 7.27653C20.6133 7.27653 21.5194 6.37035 21.5194 5.25646C21.5194 4.14256 20.6133 3.23657 19.4994 3.23657ZM19.4994 5.81073C19.1938 5.81073 18.9451 5.56202 18.9451 5.25646C18.9451 4.95071 19.1938 4.70218 19.4994 4.70218C19.8051 4.70218 20.0538 4.95071 20.0538 5.25646C20.0538 5.56202 19.8051 5.81073 19.4994 5.81073Z" fill="#FBFBFB"/>
</svg>
