<svg width="148" height="31" viewBox="0 0 148 31" fill="none" xmlns="http://www.w3.org/2000/svg">
<path d="M13.936 19V23H10.864V19C10.864 16.5893 10.3307 14.8933 9.264 13.912C8.21867 12.9093 6.21333 12.3973 3.248 12.376V23H0.24V0.599998H3.248V9.72C4.82667 9.76267 5.76533 9.80533 6.064 9.848L10.576 0.599998H13.84L8.784 10.552C12.2187 11.8107 13.936 14.6267 13.936 19ZM25.9953 13.976V16.856C25.1846 16.2373 24.1926 15.928 23.0193 15.928C22.0166 15.928 21.2379 16.1307 20.6833 16.536C20.1286 16.92 19.8513 17.4747 19.8513 18.2C19.8513 19.608 20.8966 20.312 22.9873 20.312H27.2113V14.2C27.2113 11.6187 25.9526 10.328 23.4353 10.328H18.3153V7.64H23.5953C25.6646 7.64 27.2539 8.152 28.3633 9.176C29.4726 10.2 30.0273 11.672 30.0273 13.592V23H22.8913C21.0779 23 19.6379 22.5947 18.5713 21.784C17.5046 20.9733 16.9713 19.7893 16.9713 18.232C16.9713 16.6747 17.5366 15.4907 18.6673 14.68C19.7979 13.8693 21.2166 13.464 22.9233 13.464C23.8833 13.464 24.9073 13.6347 25.9953 13.976ZM33.545 30.296V15.32C33.545 14.2107 33.7477 13.1653 34.153 12.184C34.5583 11.2027 35.113 10.36 35.817 9.656C36.521 8.93067 37.353 8.36533 38.313 7.96C39.273 7.53333 40.297 7.32 41.385 7.32C42.473 7.32 43.4863 7.53333 44.425 7.96C45.385 8.36533 46.217 8.93067 46.921 9.656C47.6463 10.3813 48.2117 11.2347 48.617 12.216C49.0223 13.176 49.225 14.2107 49.225 15.32C49.225 16.4293 49.0223 17.4747 48.617 18.456C48.233 19.416 47.689 20.2587 46.985 20.984C46.281 21.7093 45.449 22.2853 44.489 22.712C43.529 23.1173 42.4943 23.32 41.385 23.32C40.0197 23.32 38.7503 23 37.577 22.36V19.48C38.6223 20.248 39.8597 20.632 41.289 20.632C42.057 20.632 42.7503 20.504 43.369 20.248C44.009 19.9707 44.5423 19.5973 44.969 19.128C45.417 18.6587 45.7583 18.104 45.993 17.464C46.2277 16.8027 46.345 16.088 46.345 15.32C46.345 14.552 46.2277 13.848 45.993 13.208C45.7583 12.5467 45.4277 11.9813 45.001 11.512C44.5743 11.0427 44.0517 10.68 43.433 10.424C42.8357 10.1467 42.153 10.008 41.385 10.008C40.6383 10.008 39.9557 10.136 39.337 10.392C38.7397 10.648 38.217 11.0107 37.769 11.48C37.3423 11.9493 37.0117 12.5147 36.777 13.176C36.5423 13.816 36.425 14.5307 36.425 15.32V30.296H33.545ZM63.373 23H60.365V0.599998H63.373V10.008H73.101V0.599998H76.109V23H73.101V12.824H63.373V23ZM88.8078 13.976V16.856C87.9971 16.2373 87.0051 15.928 85.8318 15.928C84.8291 15.928 84.0504 16.1307 83.4958 16.536C82.9411 16.92 82.6638 17.4747 82.6638 18.2C82.6638 19.608 83.7091 20.312 85.7998 20.312H90.0238V14.2C90.0238 11.6187 88.7651 10.328 86.2478 10.328H81.1278V7.64H86.4078C88.4771 7.64 90.0664 8.152 91.1758 9.176C92.2851 10.2 92.8398 11.672 92.8398 13.592V23H85.7038C83.8904 23 82.4504 22.5947 81.3838 21.784C80.3171 20.9733 79.7838 19.7893 79.7838 18.232C79.7838 16.6747 80.3491 15.4907 81.4798 14.68C82.6104 13.8693 84.0291 13.464 85.7358 13.464C86.6958 13.464 87.7198 13.6347 88.8078 13.976ZM95.8775 23V14.264C95.8775 11.8107 96.3362 10.1147 97.2535 9.176C97.7015 8.70667 98.2455 8.35467 98.8855 8.12C99.5255 7.88533 100.08 7.74667 100.55 7.704C101.04 7.66133 101.702 7.64 102.534 7.64H105.35V10.328H101.958C101.531 10.328 101.2 10.3387 100.966 10.36C100.731 10.3813 100.454 10.456 100.134 10.584C99.8135 10.712 99.5362 10.9147 99.3015 11.192C98.8962 11.704 98.6935 12.728 98.6935 14.264V23H95.8775ZM119.42 0.599998H122.3V23H114.78C112.455 23 110.567 22.264 109.116 20.792C107.665 19.2987 106.94 17.4213 106.94 15.16C106.94 12.9413 107.687 11.0853 109.18 9.592C110.695 8.07733 112.487 7.32 114.556 7.32C115.879 7.32 117.116 7.64 118.268 8.28V11.16C117.201 10.392 115.964 10.008 114.556 10.008C113.276 10.008 112.188 10.488 111.292 11.448C110.417 12.3867 109.98 13.624 109.98 15.16C109.98 16.7173 110.396 17.9653 111.228 18.904C112.081 19.8427 113.265 20.312 114.78 20.312H119.42V0.599998ZM130.299 23H127.483V10.328H124.859L126.139 7.64H130.299V23ZM127.355 4.44C127.077 4.07733 126.939 3.68267 126.939 3.256C126.939 2.82933 127.077 2.44533 127.355 2.104C127.632 1.74133 128.059 1.56 128.635 1.56C129.211 1.56 129.637 1.74133 129.915 2.104C130.192 2.44533 130.331 2.82933 130.331 3.256C130.331 3.68267 130.192 4.07733 129.915 4.44C129.637 4.78133 129.211 4.952 128.635 4.952C128.059 4.952 127.632 4.78133 127.355 4.44ZM142.096 7.32C145.723 7.46933 147.536 8.97333 147.536 11.832C147.536 15.3947 145.2 17.176 140.528 17.176H139.216V14.712H140.752C142.182 14.712 143.174 14.4987 143.728 14.072C144.283 13.624 144.56 12.888 144.56 11.864C144.56 11.2027 144.315 10.712 143.824 10.392C143.334 10.0507 142.704 9.88 141.936 9.88C140.422 9.88 139.227 10.4133 138.352 11.48C137.499 12.5467 137.072 13.8267 137.072 15.32C137.072 16.8987 137.531 18.1787 138.448 19.16C139.387 20.1413 140.603 20.632 142.096 20.632C143.44 20.632 144.539 20.3013 145.392 19.64L147.312 21.528C145.84 22.7227 144.102 23.32 142.096 23.32C139.664 23.32 137.723 22.6053 136.272 21.176C134.822 19.7467 134.096 17.9013 134.096 15.64C134.096 13.1227 134.811 11.0853 136.24 9.528C137.67 7.97067 139.622 7.23467 142.096 7.32Z" fill="#FBFBFB"/>
</svg>
