<svg width="22" height="22" viewBox="0 0 22 22" fill="none" xmlns="http://www.w3.org/2000/svg">
<path d="M19.2387 19.6362L16.1422 16.5397C16.2781 16.4107 16.4107 16.2782 16.5397 16.1422L19.6363 19.2389L19.6365 19.2391C19.6902 19.2927 19.7188 19.3615 19.7188 19.4375C19.7188 19.5134 19.6903 19.5823 19.6363 19.6362L19.6363 19.6362C19.5822 19.6903 19.5132 19.7188 19.4375 19.7188C19.3618 19.7188 19.2928 19.6903 19.2387 19.6362ZM17.9792 20.8958L17.9792 20.8958C18.3681 21.2847 18.8876 21.5 19.4375 21.5C19.9874 21.5 20.5069 21.2847 20.8957 20.8959C21.2847 20.5071 21.5 19.9876 21.5 19.4375C21.5 18.8875 21.2847 18.3679 20.8958 17.9792C20.8957 17.9792 20.8957 17.9791 20.8956 17.9791L15.9637 13.0472C16.7254 11.7677 17.125 10.3175 17.125 8.8125C17.125 4.22855 13.3965 0.5 8.8125 0.5C4.22855 0.5 0.5 4.22855 0.5 8.8125C0.5 13.3965 4.22855 17.125 8.8125 17.125C10.3176 17.125 11.7678 16.7254 13.0472 15.9638L14.2064 17.123L14.207 17.1236L17.9792 20.8958ZM12.6413 14.1003L12.6268 14.1109C11.5096 14.9178 10.1923 15.3438 8.8125 15.3438C5.21161 15.3438 2.28125 12.4134 2.28125 8.8125C2.28125 5.21161 5.21161 2.28125 8.8125 2.28125C12.4134 2.28125 15.3438 5.21161 15.3438 8.8125C15.3438 10.1982 14.9142 11.5208 14.1005 12.6411L14.1004 12.6412C13.6931 13.2023 13.2023 13.6931 12.6413 14.1003ZM14.8825 15.2799L14.4859 14.8833C14.6228 14.7553 14.7553 14.6228 14.8833 14.4859L15.2799 14.8824C15.1516 15.019 15.019 15.1516 14.8825 15.2799Z" fill="#B4B4BC" stroke="#B4B4BC"/>
</svg>
