<svg width="39" height="20" viewBox="0 0 39 20" fill="none" xmlns="http://www.w3.org/2000/svg">
<path d="M28.1326 2.39062L27.4153 4.93736H28.8572L28.1326 2.39062Z" fill="#FBFBFB"/>
<path d="M3.34195 2.39062L2.63281 4.93736H4.05678L3.34195 2.39062Z" fill="#FBFBFB"/>
<path d="M19.8002 2.75148C19.6764 2.64908 19.4859 2.63599 19.3052 2.63599H18.0188V4.05402H19.2881C19.4892 4.05402 19.6585 4.04925 19.8043 3.92305C19.9386 3.81946 20.0192 3.59444 20.0192 3.31583C20.0192 3.04199 19.9353 2.84435 19.8002 2.75148Z" fill="#FBFBFB"/>
<path d="M24.2749 13.741C24.1479 13.6303 23.9606 13.6255 23.7766 13.6255H22.4902V15.0602H23.7595C23.9631 15.0602 24.1365 15.0507 24.2773 14.9304C24.4125 14.809 24.4931 14.5911 24.4931 14.316C24.4906 14.041 24.41 13.8434 24.2749 13.741Z" fill="#FBFBFB"/>
<path d="M19.1906 13.623H17.8293V15.2506H19.1776C19.579 15.2506 19.8289 14.9601 19.8289 14.4089C19.8281 13.8469 19.5684 13.623 19.1906 13.623Z" fill="#FBFBFB"/>
<path d="M38.4789 14.5827C38.4715 14.572 38.4634 14.5601 38.4561 14.5518C38.6539 14.3637 38.7858 14.0374 38.7858 13.666V12.3051C38.7858 11.7205 38.4626 11.249 38.0637 11.249H35.9713C35.3191 11.249 34.8274 11.53 34.4691 11.9538C34.369 11.5443 34.1117 11.249 33.7966 11.249H31.7042C31.1286 11.249 30.6751 11.4574 30.3299 11.8002C30.2045 11.4728 29.979 11.249 29.7087 11.249H26.2241C25.9432 11.249 25.7063 11.4883 25.5866 11.83C25.5369 11.7788 25.5003 11.7193 25.4482 11.674C24.9426 11.2788 24.4052 11.249 23.8516 11.249H21.4393C21.1584 11.249 20.9206 11.4907 20.8018 11.8348C20.4346 11.4859 19.9208 11.249 19.1905 11.249H15.8541C15.653 11.249 15.4617 11.3681 15.3241 11.5847L14.5335 12.8313L13.7747 11.599C13.6388 11.3716 13.4442 11.2478 13.2382 11.2478H9.03873C8.63979 11.2478 8.31738 11.7205 8.31738 12.3039V18.694C8.31738 19.2785 8.64061 19.75 9.03873 19.75H13.1755C13.3766 19.75 13.5679 19.6274 13.7047 19.4107L14.5018 18.1498L15.2581 19.394C15.3949 19.6203 15.5919 19.7477 15.7979 19.7477H17.8276C18.2274 19.7477 18.5498 19.275 18.5498 18.694V17.6033H19.1303C19.8362 17.6033 20.3466 17.3914 20.7179 17.0688V18.694C20.7179 19.2762 21.0411 19.7477 21.4401 19.7477H22.4895C22.8893 19.7477 23.2117 19.275 23.2117 18.694V17.4128H23.6049C23.701 17.4128 23.7686 17.4176 23.8174 17.4224C23.8207 17.5367 23.8207 17.6736 23.8191 17.7641V18.694C23.8191 19.2762 24.1439 19.7477 24.5412 19.7477H25.589C25.7063 19.7477 25.8121 19.7012 25.9082 19.6286C26.0059 19.6988 26.1109 19.7477 26.2265 19.7477H29.712C29.8251 19.7477 29.9302 19.7012 30.0254 19.6333C30.1207 19.7012 30.2233 19.7477 30.3389 19.7477H32.3727C33.0199 19.7477 33.5475 19.5155 33.9424 19.1059C34.0506 19.4821 34.3063 19.7477 34.6051 19.7477H36.6389C38.1182 19.7477 38.9999 18.5987 38.9999 16.6758C38.9999 15.7853 38.8355 15.1221 38.4789 14.5827ZM19.1311 16.5473H17.8284V18.6916H15.7987L14.5124 16.577L13.1755 18.6916H9.03873V12.3003H13.2382L14.5246 14.3958L15.8533 12.3003H19.1897C20.0177 12.3003 20.9499 12.6396 20.9499 14.4089C20.9499 16.1817 20.0446 16.5508 19.1311 16.5473ZM24.906 15.7245C25.1372 15.8484 25.3269 16.0734 25.4148 16.2615C25.5638 16.5735 25.5833 16.864 25.5882 17.4271V18.694H24.5404V17.8939C24.5404 17.5105 24.5656 16.9402 24.3702 16.6425C24.2204 16.4151 23.9884 16.3615 23.6057 16.3615H22.4903V18.694H21.4409V12.3039H23.8532C24.3808 12.3039 24.7651 12.336 25.1095 12.6039C25.4384 12.8944 25.646 13.2945 25.646 14.022C25.646 15.0435 25.1795 15.5638 24.906 15.7245ZM29.7103 13.6243H27.2646V14.7875H29.6501V16.0924H27.2646V17.3616L29.7103 17.3688V18.694H26.2257V12.3039H29.7103V13.6243ZM32.3735 18.6868H30.3397V17.314H32.3645C32.5615 17.314 32.7024 17.2783 32.7903 17.1557C32.862 17.058 32.9124 16.9116 32.9124 16.7378C32.9124 16.552 32.8587 16.4056 32.7854 16.3163C32.704 16.2186 32.5965 16.1746 32.4134 16.1746C31.438 16.1282 30.2143 16.2186 30.2143 14.1982C30.2143 13.2683 30.6116 12.2955 31.7075 12.2955H33.7999V13.6552H31.8841C31.6928 13.6552 31.5699 13.6671 31.4657 13.7719C31.3509 13.8767 31.3077 14.0303 31.3077 14.2327C31.3077 14.4744 31.4046 14.6351 31.5357 14.7089C31.6472 14.7649 31.7645 14.7816 31.9428 14.7816L32.5037 14.8054C33.0696 14.828 33.4596 14.9709 33.6949 15.3197C33.9 15.6281 34.0083 16.0186 34.0083 16.6747C34.0083 18.0522 33.4229 18.6939 32.3735 18.6868ZM36.6405 18.6868H34.6067V17.314H36.6324C36.8294 17.314 36.9702 17.2783 37.0573 17.1557C37.129 17.058 37.1795 16.9116 37.1795 16.7378C37.1795 16.552 37.1257 16.4056 37.0525 16.3163C36.9719 16.2186 36.8644 16.1746 36.6804 16.1746C35.7042 16.1282 34.4813 16.2186 34.4813 14.1982C34.4813 13.2683 34.8786 12.2955 35.9745 12.2955H38.0669V13.6552H36.152C35.9599 13.6552 35.8361 13.6671 35.7327 13.7719C35.6179 13.8767 35.5756 14.0303 35.5756 14.2327C35.5756 14.4744 35.6733 14.6351 35.8027 14.7089C35.9151 14.7649 36.0315 14.7816 36.2098 14.7816L36.7708 14.8054C37.3374 14.828 37.7282 14.9709 37.9635 15.3197C38.167 15.6281 38.277 16.0186 38.277 16.6747C38.277 18.0522 37.69 18.6939 36.6405 18.6868Z" fill="#FBFBFB"/>
<path d="M35.2011 0.25H34.1321C33.7323 0.25 33.4099 0.722678 33.4099 1.30489V1.96449L32.9141 0.760777C32.7822 0.445262 32.5485 0.25119 32.297 0.25119H30.7053C30.3063 0.25119 29.9839 0.723868 29.9839 1.30608V2.20262L29.6005 0.890553C29.4873 0.503601 29.2268 0.25119 28.9385 0.25119H27.3737C27.215 0.25119 27.0635 0.32739 26.943 0.46074C26.8233 0.328581 26.6727 0.25119 26.5107 0.25119H25.502C24.6438 0.25119 24.0088 0.5548 23.5415 1.14773C23.4877 0.644097 23.2019 0.25119 22.8421 0.25119H21.7755C21.4906 0.25119 21.252 0.497648 21.1332 0.84531C21.0884 0.797685 21.0542 0.740537 21.0037 0.697674C20.5136 0.283338 19.9982 0.25119 19.377 0.25119H16.9752C16.8401 0.25119 16.722 0.320246 16.6129 0.414305C16.5063 0.320246 16.3866 0.25119 16.2514 0.25119H12.7636C12.6162 0.25119 12.4884 0.330962 12.3744 0.440499C12.2596 0.330962 12.1318 0.25119 11.9852 0.25119H10.2445C9.95632 0.25119 9.69498 0.504794 9.58181 0.895318L8.96142 3.03367L8.27833 0.864361C8.15947 0.490505 7.903 0.25119 7.62293 0.25119H5.91807C5.51913 0.25119 5.19673 0.723868 5.19673 1.30608V2.22405L4.80511 0.888174C4.69113 0.501222 4.4306 0.25 4.14157 0.25H2.5914C2.30238 0.25 2.04184 0.502411 1.92786 0.889364L0.058542 7.27943C-0.0375292 7.60685 -0.0139185 7.97833 0.11879 8.27598C0.252313 8.57126 0.47865 8.74985 0.721271 8.74985H1.85621C2.14606 8.74985 2.40903 8.49267 2.52057 8.09977L2.74121 7.32348H3.95106L4.16844 8.09501C4.27916 8.49029 4.54295 8.74866 4.83605 8.74866H6.9602C7.35914 8.74866 7.68155 8.27598 7.68155 7.69377V7.66876L7.81833 8.12239C7.93394 8.50339 8.19285 8.74985 8.4778 8.74985L9.39537 8.75223C9.68195 8.75223 9.93923 8.50577 10.0548 8.12358L10.1932 7.67115V7.69734C10.1932 8.27955 10.5157 8.75104 10.9146 8.75104H11.9852C12.1318 8.75104 12.2596 8.67008 12.3744 8.56173C12.4884 8.67008 12.6162 8.75104 12.7636 8.75104H16.2514C16.3866 8.75104 16.5063 8.68198 16.6129 8.58792C16.7212 8.68198 16.8401 8.75104 16.9752 8.75104H18.0206C18.4196 8.75104 18.742 8.27836 18.742 7.69615V6.42695H19.1409C19.2313 6.42695 19.2956 6.43052 19.3436 6.43528C19.3485 6.54363 19.3469 6.67221 19.3469 6.75794L19.3453 6.89843L19.3493 7.70448C19.3526 8.28313 19.6758 8.75104 20.0715 8.75104H21.125C21.2431 8.75104 21.3497 8.69746 21.4482 8.62364C21.5484 8.69865 21.6558 8.75104 21.7747 8.75104H22.8413C23.1914 8.75104 23.4682 8.38195 23.5358 7.90093C24.1276 8.6284 24.9614 8.75104 25.4254 8.75104H26.6491C26.9406 8.75104 27.2044 8.4891 27.3143 8.09024L27.5268 7.32467H28.7301L28.9508 8.10096C29.0623 8.49267 29.3245 8.74985 29.6167 8.74985H31.7417C32.1406 8.74985 32.4631 8.27717 32.4631 7.69496V6.6865L33.1038 8.24026C33.2349 8.55578 33.4685 8.74985 33.7226 8.74985H35.2011C35.6 8.74985 35.9224 8.27717 35.9224 7.69496V1.30489C35.9224 0.722678 35.5984 0.25 35.2011 0.25ZM11.9844 7.69377H10.9138L10.9097 2.68958L9.39537 7.69377H8.4778L6.96102 2.68482V7.69377H4.83524L4.43386 6.26859H2.26004L1.85459 7.69377H0.719643L2.58978 1.3037H4.13994L5.91726 7.35444V1.3037H7.62212L8.9891 5.63875L10.2437 1.3037H11.9844V7.69377ZM16.2506 2.63481H13.8065V3.78615H16.1928V5.09583H13.8065V6.37218H16.2506V7.69377H12.7627V1.3037H16.2506V2.63481ZM20.433 4.72912C20.6618 4.85771 20.8572 5.08154 20.95 5.26728C21.0981 5.58518 21.1234 5.86854 21.1234 6.43885V7.69258H20.0699L20.065 6.88653C20.065 6.50315 20.0902 5.9507 19.9005 5.64233C19.7483 5.41849 19.5154 5.36967 19.1393 5.36967H18.0198V7.69377H16.9744H16.9736V1.30489H19.3754C19.9095 1.30489 20.3027 1.32513 20.6398 1.61088C20.9703 1.89663 21.1682 2.31335 21.1682 3.02653C21.1682 4.04451 20.7033 4.57196 20.433 4.72912ZM22.8421 7.69377H21.7755V1.3037H22.8421V7.69377ZM35.2011 7.69377H33.7217L31.7409 2.89794V7.69377H29.6159L29.2088 6.26859H27.0383L26.6459 7.69377H25.423C24.9158 7.69377 24.275 7.52946 23.9119 6.98773C23.5423 6.4448 23.3518 5.709 23.3518 4.54814C23.3518 3.60041 23.4665 2.73364 23.9111 2.04784C24.2473 1.53825 24.7757 1.3037 25.4971 1.3037H26.5058V2.67292H25.5166C25.1364 2.67292 24.9206 2.75507 24.7138 3.05153C24.5355 3.32061 24.4142 3.82901 24.4142 4.49933C24.4142 5.18274 24.507 5.67566 24.7024 5.99832C24.8645 6.25192 25.1576 6.32812 25.4303 6.32812H25.8985L27.3737 1.3037H28.9385L30.7053 7.3473V1.3037H32.297L34.1321 5.75424V1.3037H35.2011V7.69377ZM25.8805 3.729L25.4271 5.27561C25.3269 5.27561 25.2593 5.25895 25.2219 5.24466C25.1869 5.14941 25.1388 4.93867 25.1388 4.50052C25.1388 4.05761 25.2121 3.82782 25.2219 3.80758C25.252 3.76472 25.2772 3.72781 25.5223 3.72781L25.8805 3.729Z" fill="#FBFBFB"/>
<path d="M15.1848 15.5091L16.7887 18.1142V12.991L15.1848 15.5091Z" fill="#FBFBFB"/>
<path d="M12.6985 13.6255H10.0818V14.7863H12.3737V16.0913H10.0818V17.3628H12.648L13.8408 15.4852L12.6985 13.6255Z" fill="#FBFBFB"/>
</svg>
