<svg width="20" height="25" viewBox="0 0 20 25" fill="none" xmlns="http://www.w3.org/2000/svg">
<path d="M12.3537 25H6.71076C5.76821 25 5.00148 24.456 5.00148 23.7873V14.7572H1.70928C0.766728 14.7572 0 14.213 0 13.5445V9.67503C0 9.00631 0.766728 8.46233 1.70928 8.46233H5.00148V6.52466C5.00148 4.60339 5.85182 2.96879 7.46028 1.79787C9.076 0.621605 11.334 0 13.9901 0L18.2937 0.00495908C19.2346 0.00610352 20 0.550079 20 1.21765V4.81033C20 5.47905 19.2335 6.02303 18.2913 6.02303L15.3937 6.02379C14.51 6.02379 14.285 6.14948 14.2369 6.18801C14.1576 6.25191 14.0632 6.43253 14.0632 6.9313V8.46214H18.0735C18.3754 8.46214 18.6679 8.51498 18.9193 8.61454C19.4615 8.8295 19.7986 9.23595 19.7986 9.67522L19.7965 13.5447C19.7965 14.213 19.0298 14.757 18.0872 14.757H14.0632V23.7873C14.0632 24.456 13.2962 25 12.3537 25ZM7.06724 23.5344H11.9972V14.101C11.9972 13.6545 12.5093 13.2914 13.1384 13.2914H17.7307L17.7326 9.92794H13.1382C12.5091 9.92794 11.9972 9.56478 11.9972 9.11827V6.9313C11.9972 6.35872 12.0792 5.70755 12.6884 5.21812C13.4245 4.62646 14.5845 4.55818 15.3932 4.55818L17.9342 4.55742V1.47018L13.9885 1.46561C9.71987 1.46561 7.06724 3.40424 7.06724 6.52466V9.11827C7.06724 9.56459 6.55537 9.92794 5.92628 9.92794H2.06576V13.2914H5.92628C6.55537 13.2914 7.06724 13.6545 7.06724 14.101V23.5344ZM18.2896 1.47057H18.2899H18.2896Z" fill="#FBFBFB"/>
</svg>
