<svg width="19" height="19" viewBox="0 0 19 19" fill="none" xmlns="http://www.w3.org/2000/svg">
<path d="M9.19136 18.688C8.93063 18.688 8.67926 18.5827 8.48336 18.3915C7.7435 17.6705 7.0302 16.9929 6.40086 16.3952L6.39765 16.3921C4.55255 14.6396 2.95923 13.1263 1.85064 11.6355C0.611394 9.96884 0.0341797 8.38865 0.0341797 6.66238C0.0341797 4.98516 0.550193 3.43783 1.48707 2.30521C2.43512 1.15919 3.73598 0.528015 5.15044 0.528015C6.20762 0.528015 7.17579 0.900521 8.02799 1.6351C8.45807 2.00589 8.84791 2.45969 9.19136 2.98902C9.53495 2.45969 9.92465 2.00589 10.3549 1.6351C11.2071 0.900521 12.1752 0.528015 13.2324 0.528015C14.6467 0.528015 15.9477 1.15919 16.8958 2.30521C17.8327 3.43783 18.3485 4.98516 18.3485 6.66238C18.3485 8.38865 17.7715 9.96884 16.5322 11.6353C15.4236 13.1263 13.8305 14.6395 11.9856 16.3918C11.3552 16.9904 10.6408 17.6691 9.89922 18.3918C9.70346 18.5827 9.45195 18.688 9.19136 18.688ZM5.15044 1.72371C4.03919 1.72371 3.01834 2.218 2.27569 3.11563C1.522 4.0268 1.10687 5.28635 1.10687 6.66238C1.10687 8.11425 1.59102 9.41273 2.67657 10.8725C3.72578 12.2836 5.2864 13.7658 7.09335 15.4821L7.09671 15.4853C7.72841 16.0853 8.44452 16.7655 9.18982 17.4918C9.9396 16.7641 10.6568 16.0828 11.2898 15.4818C13.0966 13.7655 14.6571 12.2836 15.7063 10.8725C16.7917 9.41273 17.2759 8.11425 17.2759 6.66238C17.2759 5.28635 16.8607 4.0268 16.107 3.11563C15.3645 2.218 14.3435 1.72371 13.2324 1.72371C12.4184 1.72371 11.671 2.01212 11.011 2.58085C10.4229 3.08791 10.0132 3.72889 9.77305 4.17739C9.64953 4.40803 9.43211 4.91337 9.19136 4.91337C8.95061 4.91337 8.73319 4.40803 8.60967 4.17739C8.36962 3.72889 7.95994 3.08791 7.37169 2.58085C6.71176 2.01212 5.96435 1.72371 5.15044 1.72371Z" fill="white"/>
</svg>
