<svg width="87" height="69" viewBox="0 0 87 69" fill="none" xmlns="http://www.w3.org/2000/svg">
<path d="M71.127 45.3748C69.0011 45.3748 66.9816 46.0351 65.4581 47.2294C63.9346 48.4377 63.0842 50.0113 63.0842 51.6973C63.0842 53.3833 63.9168 54.9569 65.4581 56.1652C66.9993 57.3595 69.0011 58.0199 71.127 58.0199C75.4849 58.0199 79.028 55.1817 79.028 51.6973C79.028 48.2129 75.4849 45.3748 71.127 45.3748ZM71.127 55.2098C68.6823 55.2098 66.6273 53.6081 66.6273 51.6973C66.6273 49.7865 68.6823 48.1848 71.127 48.1848C73.5363 48.1848 75.4849 49.7584 75.4849 51.6973C75.4849 53.6362 73.5363 55.2098 71.127 55.2098Z" fill="#FBFBFB"/>
<path d="M73.1819 24.3137C72.863 24.0748 72.4379 23.9484 71.995 23.9484H62.907C61.9327 23.9484 61.1355 24.5806 61.1355 25.3534V36.8745C61.1355 37.6472 61.9327 38.2795 62.907 38.2795H77.3273C78.3016 38.2795 79.0988 37.6472 79.0988 36.8745V29.161C79.0988 28.7676 78.8862 28.3882 78.5142 28.1213L73.1819 24.3137ZM75.5558 35.4695H64.6786V26.7444H71.3041L75.5558 29.7792V35.4695Z" fill="#FBFBFB"/>
<path d="M27.8662 45.3748C25.7404 45.3748 23.7209 46.0351 22.1973 47.2294C20.6738 48.4377 19.8235 50.0113 19.8235 51.6973C19.8235 53.3833 20.6561 54.9569 22.1973 56.1652C23.7386 57.3595 25.7404 58.0199 27.8662 58.0199C32.2242 58.0199 35.7673 55.1817 35.7673 51.6973C35.7673 48.2129 32.2242 45.3748 27.8662 45.3748ZM27.8662 55.2098C25.4215 55.2098 23.3666 53.6081 23.3666 51.6973C23.3666 49.7865 25.4215 48.1848 27.8662 48.1848C30.2755 48.1848 32.2242 49.7584 32.2242 51.6973C32.2242 53.6362 30.2755 55.2098 27.8662 55.2098Z" fill="#FBFBFB"/>
<path d="M16.0501 47.1029H12.4894V43.3656C12.4894 42.5929 11.6922 41.9606 10.7178 41.9606C9.74348 41.9606 8.94629 42.5929 8.94629 43.3656V48.5079C8.94629 49.2807 9.74348 49.913 10.7178 49.913H16.0501C17.0245 49.913 17.8217 49.2807 17.8217 48.5079C17.8217 47.7352 17.0245 47.1029 16.0501 47.1029Z" fill="#FBFBFB"/>
<path d="M25.0318 39.4456C25.0318 38.6729 24.2346 38.0406 23.2602 38.0406H1.77153C0.79719 38.0406 0 38.6729 0 39.4456C0 40.2184 0.79719 40.8506 1.77153 40.8506H23.2602C24.2346 40.8506 25.0318 40.2324 25.0318 39.4456Z" fill="#EA7307"/>
<path d="M5.36788 34.3736L26.8566 34.4719C27.8309 34.4719 28.6281 33.8537 28.6458 33.0809C28.6635 32.2941 27.8663 31.6619 26.892 31.6619L5.40331 31.5635C5.38559 31.5635 5.38559 31.5635 5.38559 31.5635C4.41125 31.5635 3.61406 32.1817 3.61406 32.9545C3.59634 33.7413 4.39353 34.3736 5.36788 34.3736Z" fill="#EA7307"/>
<path d="M8.98174 27.9948H30.4704C31.4448 27.9948 32.242 27.3626 32.242 26.5898C32.242 25.817 31.4448 25.1848 30.4704 25.1848H8.98174C8.00739 25.1848 7.21021 25.817 7.21021 26.5898C7.21021 27.3626 8.00739 27.9948 8.98174 27.9948Z" fill="#EA7307"/>
<path d="M86.3446 26.098L73.6604 17.7663C73.3415 17.5556 72.9518 17.4432 72.5266 17.4432H57.6103V12.3852C57.6103 11.6124 56.8131 10.9801 55.8388 10.9801H10.7178C9.74348 10.9801 8.94629 11.6124 8.94629 12.3852V22.6698C8.94629 23.4426 9.74348 24.0748 10.7178 24.0748C11.6922 24.0748 12.4894 23.4426 12.4894 22.6698V13.7902H54.085V47.1029H39.5584C38.584 47.1029 37.7868 47.7352 37.7868 48.5079C37.7868 49.2807 38.584 49.9129 39.5584 49.9129H61.1888C62.1631 49.9129 62.9603 49.2807 62.9603 48.5079C62.9603 47.7352 62.1631 47.1029 61.1888 47.1029H57.628V20.2532H71.9066L83.457 27.8403L83.333 47.0748H81.4906C80.5162 47.0748 79.719 47.7071 79.719 48.4798C79.719 49.2526 80.5162 49.8848 81.4906 49.8848H85.0868C86.0611 49.8848 86.8583 49.2666 86.8583 48.4939L87 27.1939C86.9823 26.7724 86.752 26.365 86.3446 26.098Z" fill="#FBFBFB"/>
</svg>
