<svg width="65" height="57" viewBox="0 0 65 57" fill="none" xmlns="http://www.w3.org/2000/svg">
<g clip-path="url(#clip0)">
<path d="M49.3262 51.0583L46.9438 53.1464C46.2169 53.7875 45.3522 54.2957 44.3997 54.6417C43.4473 54.9877 42.4261 55.1646 41.3952 55.1621H40.3468C38.7948 55.162 37.2777 54.7584 35.9873 54.0023C34.697 53.2461 33.6912 52.1714 33.0973 50.9141C32.5034 49.6567 32.348 48.2732 32.6508 46.9383C32.9535 45.6035 33.7008 44.3774 34.7982 43.4151L55.7817 25.0142C57.0529 23.9049 58.0606 22.5856 58.7467 21.1326C59.4328 19.6797 59.7835 18.1218 59.7786 16.5492C59.7733 15.9461 59.7168 15.3442 59.6096 14.7484L63.0247 11.4537C64.3373 10.1873 65.0434 8.52622 64.9962 6.81537C64.9492 5.10452 64.1525 3.47529 62.7718 2.26589L62.4153 1.95445C61.0355 0.744379 59.1774 0.0466192 57.2265 0.00596316C55.2757 -0.0346929 53.3818 0.584876 51.938 1.73611L48.1743 4.7332C44.0712 4.21377 39.1936 5.72036 35.9514 8.54393L16.2942 25.7887C15.8192 26.2079 15.2128 26.4938 14.5522 26.6101C13.8915 26.7265 13.2063 26.668 12.5836 26.4422C11.9609 26.2163 11.4288 25.8332 11.0548 25.3416C10.6809 24.85 10.482 24.272 10.4835 23.6811V19.3073H8.3867V23.6811C8.38676 24.6344 8.70918 25.5662 9.31319 26.3588C9.91721 27.1514 10.7757 27.7691 11.78 28.1339C12.7844 28.4986 13.8896 28.5939 14.9557 28.4079C16.0219 28.2218 17.0012 27.7626 17.7698 27.0885L37.427 9.85056C39.6902 7.87855 42.9769 6.63282 45.9819 6.49607C43.5077 8.54374 42.0545 11.3646 41.9377 14.3462L0.68368 53.2372C0.230057 53.6612 -0.0176385 54.2234 -0.00699487 54.8048C0.00364879 55.3861 0.271797 55.941 0.740709 56.3521C1.20962 56.7631 1.84251 56.9981 2.50545 57.0072C3.16838 57.0163 3.80936 56.7989 4.29275 56.4009L48.6448 20.2266C50.3472 20.1761 52.0215 19.8307 53.5711 19.2104C55.1207 18.5902 56.5151 17.7072 57.674 16.6124C57.6632 19.2793 56.4496 21.8341 54.2982 23.719L33.3147 42.1142C31.9244 43.3339 30.9777 44.8877 30.5943 46.5792C30.2109 48.2707 30.4079 50.0239 31.1606 51.6172C31.9132 53.2105 33.1876 54.5723 34.8227 55.5306C36.4578 56.4888 38.3802 57.0005 40.3468 57.0008H41.3952C42.7016 57.0038 43.9957 56.7797 45.2027 56.3414C46.4097 55.9031 47.5057 55.2593 48.4272 54.4473L50.8084 52.3581C51.2952 51.931 51.8731 51.5923 52.5093 51.3611C53.1454 51.13 53.8272 51.0111 54.5157 51.0111C55.2043 51.0111 55.8861 51.13 56.5222 51.3611C57.1584 51.5923 57.7363 51.931 58.2231 52.3581L63.2029 56.7319L64.6864 55.431L59.6987 51.0641C58.3214 49.8587 56.455 49.1818 54.5092 49.1818C52.5634 49.1818 50.697 49.8587 49.3197 51.0641L49.3262 51.0583ZM48.2254 18.3879H47.8139L2.86433 55.0541C2.79708 55.1014 2.71637 55.1317 2.63091 55.1418C2.54544 55.1518 2.45848 55.1411 2.37942 55.111C2.30036 55.0808 2.2322 55.0322 2.18232 54.9706C2.13243 54.9089 2.10272 54.8364 2.09638 54.761C2.09654 54.6598 2.14058 54.5625 2.21957 54.4887L44.0319 15.0713V14.7105C44.0333 13.3905 44.3487 12.0853 44.9579 10.8782C45.5672 9.67116 46.4569 8.58884 47.5702 7.70042L53.3494 3.09216C54.3958 2.25969 55.7672 1.81198 57.1797 1.84171C58.5921 1.87145 59.9375 2.37635 60.9371 3.25189L61.2936 3.56333C62.2918 4.4401 62.8673 5.61992 62.901 6.85853C62.9347 8.09714 62.4239 9.29967 61.4744 10.2172L59.0055 12.5983C58.759 11.9687 58.4521 11.3586 58.0881 10.7745L59.9228 8.98522C60.5098 8.41711 60.8253 7.67287 60.8041 6.90646C60.7829 6.14005 60.4265 5.41012 59.8088 4.86766L59.4497 4.55278C58.2074 3.46335 56.0542 3.41968 54.7569 4.4505L49.6027 8.52094C47.9424 9.84482 47.2858 11.071 47.177 13.0442C47.157 13.388 47.2188 13.7318 47.3587 14.0535C47.4986 14.3753 47.7135 14.6679 47.9895 14.9128C48.5214 15.3741 49.24 15.6319 49.988 15.6299H50.1191C52.3692 15.5356 53.7688 14.9599 55.2824 13.5015L56.568 12.2478C56.9029 12.8737 57.1629 13.5284 57.3438 14.2014L56.2194 15.2851C55.2064 16.2615 53.9722 17.0419 52.5957 17.5761C51.2192 18.1104 49.7307 18.3869 48.2254 18.3879ZM52.9287 8.3704C53.4143 8.67724 53.8722 9.01649 54.2982 9.38514C54.7186 9.75877 55.1051 10.1607 55.4541 10.5872L53.7295 12.2639C52.5906 13.3625 51.7244 13.7199 50.0234 13.79C49.9226 13.7977 49.8211 13.786 49.726 13.7556C49.6308 13.7253 49.5445 13.677 49.4729 13.6142C49.4014 13.5515 49.3463 13.4757 49.3117 13.3924C49.2771 13.309 49.2637 13.2199 49.2725 13.1315C49.3524 11.6376 49.7587 10.8802 51.0089 9.88504L52.9287 8.3704ZM55.7817 8.08425C55.3821 7.73982 54.9594 7.4167 54.5157 7.11663L56.1643 5.81459C56.416 5.62234 56.7406 5.51962 57.0743 5.52664C57.408 5.53366 57.7267 5.6499 57.9676 5.85252L58.3266 6.1674C58.5643 6.37666 58.701 6.65814 58.7084 6.95344C58.7157 7.24873 58.5931 7.53516 58.3659 7.75328L56.8851 9.19437C56.543 8.80527 56.1745 8.43456 55.7817 8.08425Z" fill="#FBFBFB"/>
<path d="M13.8834 28.5C14.6056 28.5018 15.321 28.3779 15.9882 28.1355C16.6555 27.893 17.2612 27.5369 17.7703 27.0877L37.4275 9.84975C39.6907 7.87773 42.9774 6.63201 45.9824 6.49525L48.1696 4.73699C44.0664 4.21755 39.1888 5.72414 35.9467 8.54771L16.2894 25.7925C15.8138 26.2104 15.2075 26.495 14.5472 26.6103C13.8869 26.7256 13.2025 26.6663 12.5806 26.4401C11.9588 26.2138 11.4276 25.8308 11.0543 25.3394C10.681 24.8481 10.4825 24.2707 10.484 23.6803V19.3065H8.38721V23.6803C8.38929 24.958 8.96901 26.1829 9.9993 27.0863C11.0296 27.9898 12.4263 28.4982 13.8834 28.5Z" fill="#EA7307"/>
<path d="M59.7056 51.0575C58.3283 49.8522 56.4619 49.1752 54.5161 49.1752C52.5703 49.1752 50.7039 49.8522 49.3266 51.0575L46.9441 53.1456C46.2172 53.7866 45.3525 54.2949 44.4001 54.6409C43.4477 54.9869 42.4265 55.1637 41.3955 55.1613H40.3472C38.7952 55.1612 37.2781 54.7576 35.9877 54.0014C34.6973 53.2453 33.6916 52.1706 33.0977 50.9132C32.5038 49.6559 32.3484 48.2723 32.6511 46.9375C32.9539 45.6027 33.7012 44.3766 34.7986 43.4142L55.782 25.0133C57.0532 23.9041 58.061 22.5848 58.7471 21.1318C59.4331 19.6788 59.7839 18.121 59.779 16.5484C59.7737 15.9453 59.7171 15.3434 59.61 14.7476L57.6744 16.6058C57.6635 19.2727 56.4499 21.8275 54.2986 23.7125L33.3151 42.1133C31.9248 43.3331 30.9781 44.8869 30.5947 46.5784C30.2112 48.2699 30.4083 50.0231 31.1609 51.6164C31.9136 53.2097 33.188 54.5715 34.8231 55.5298C36.4582 56.488 38.3805 56.9996 40.3472 57H41.3955C42.7019 57.003 43.996 56.7788 45.2031 56.3405C46.4101 55.9022 47.506 55.2585 48.4276 54.4465L50.8087 52.3572C51.2955 51.9302 51.8735 51.5914 52.5096 51.3603C53.1457 51.1292 53.8275 51.0102 54.5161 51.0102C55.2047 51.0102 55.8865 51.1292 56.5226 51.3603C57.1587 51.5914 57.7367 51.9302 58.2235 52.3572L63.2033 56.7311L64.6868 55.4302L59.7056 51.0575Z" fill="#EA7307"/>
<path d="M56.8855 9.19356C56.5434 8.80446 56.175 8.43375 55.7821 8.08344C55.3826 7.73901 54.9598 7.41589 54.5162 7.11582L52.9292 8.36959C53.4148 8.67643 53.8726 9.01568 54.2987 9.38433C54.5162 9.5728 54.7167 9.76816 54.9093 9.97157C57.9601 13.0744 57.6745 16.6059 57.6745 16.6059L59.61 14.7476C59.2368 12.7261 58.3061 10.8151 56.8986 9.18092L56.8855 9.19356Z" fill="#EA7307"/>
</g>
<defs>
<clipPath id="clip0">
<rect width="65" height="57" fill="white"/>
</clipPath>
</defs>
</svg>
