<svg width="20" height="21" viewBox="0 0 20 21" fill="none" xmlns="http://www.w3.org/2000/svg">
<path d="M10 20.2381C9.71527 20.2381 9.44077 20.1246 9.22684 19.9185C8.41888 19.1412 7.63992 18.4108 6.95267 17.7664L6.94916 17.7631C4.93423 15.8739 3.19427 14.2425 1.98364 12.6354C0.63034 10.8387 0 9.13526 0 7.27432C0 5.46625 0.563507 3.7982 1.58661 2.57722C2.62192 1.34179 4.04251 0.661377 5.58716 0.661377C6.74164 0.661377 7.79892 1.06294 8.72955 1.85483C9.19922 2.25455 9.62494 2.74375 10 3.31438C10.3752 2.74375 10.8008 2.25455 11.2706 1.85483C12.2012 1.06294 13.2585 0.661377 14.413 0.661377C15.9575 0.661377 17.3782 1.34179 18.4135 2.57722C19.4366 3.7982 20 5.46625 20 7.27432C20 9.13526 19.3698 10.8387 18.0165 12.6352C16.8059 14.2425 15.0661 15.8738 13.0515 17.7628C12.363 18.4081 11.5828 19.1397 10.773 19.9188C10.5592 20.1246 10.2846 20.2381 10 20.2381ZM5.58716 1.95036C4.37363 1.95036 3.25882 2.4832 2.44781 3.45086C1.62476 4.43312 1.17142 5.79093 1.17142 7.27432C1.17142 8.83946 1.70013 10.2392 2.88559 11.8129C4.03137 13.3341 5.73563 14.932 7.70889 16.7822L7.71255 16.7855C8.4024 17.4324 9.18442 18.1657 9.99832 18.9487C10.8171 18.1642 11.6003 17.4297 12.2916 16.7818C14.2647 14.9316 15.9688 13.3341 17.1146 11.8129C18.2999 10.2392 18.8286 8.83946 18.8286 7.27432C18.8286 5.79093 18.3752 4.43312 17.5522 3.45086C16.7413 2.4832 15.6264 1.95036 14.413 1.95036C13.524 1.95036 12.7078 2.26127 11.9872 2.87436C11.3449 3.42098 10.8975 4.11197 10.6352 4.59546C10.5003 4.84409 10.2629 5.38886 10 5.38886C9.73709 5.38886 9.49966 4.84409 9.36478 4.59546C9.10263 4.11197 8.65524 3.42098 8.01285 2.87436C7.29218 2.26127 6.47598 1.95036 5.58716 1.95036Z" fill="#11182E"/>
</svg>
