<svg width="130" height="27" viewBox="0 0 130 27" fill="none" xmlns="http://www.w3.org/2000/svg">
<path d="M12.944 16.5V20H10.256V16.5C10.256 14.3907 9.78933 12.9067 8.856 12.048C7.94133 11.1707 6.18667 10.7227 3.592 10.704V20H0.96V0.399999H3.592V8.38C4.97333 8.41733 5.79467 8.45467 6.056 8.492L10.004 0.399999H12.86L8.436 9.108C11.4413 10.2093 12.944 12.6733 12.944 16.5ZM23.4958 12.104V14.624C22.7865 14.0827 21.9185 13.812 20.8918 13.812C20.0145 13.812 19.3332 13.9893 18.8478 14.344C18.3625 14.68 18.1198 15.1653 18.1198 15.8C18.1198 17.032 19.0345 17.648 20.8638 17.648H24.5598V12.3C24.5598 10.0413 23.4585 8.912 21.2558 8.912H16.7758V6.56H21.3958C23.2065 6.56 24.5972 7.008 25.5678 7.904C26.5385 8.8 27.0238 10.088 27.0238 11.768V20H20.7798C19.1932 20 17.9332 19.6453 16.9998 18.936C16.0665 18.2267 15.5998 17.1907 15.5998 15.828C15.5998 14.4653 16.0945 13.4293 17.0838 12.72C18.0732 12.0107 19.3145 11.656 20.8078 11.656C21.6478 11.656 22.5438 11.8053 23.4958 12.104ZM30.1019 26.384V13.28C30.1019 12.3093 30.2792 11.3947 30.6339 10.536C30.9885 9.67733 31.4739 8.94 32.0899 8.324C32.7059 7.68933 33.4339 7.19467 34.2739 6.84C35.1139 6.46667 36.0099 6.28 36.9619 6.28C37.9139 6.28 38.8005 6.46667 39.6219 6.84C40.4619 7.19467 41.1899 7.68933 41.8059 8.324C42.4405 8.95867 42.9352 9.70533 43.2899 10.564C43.6445 11.404 43.8219 12.3093 43.8219 13.28C43.8219 14.2507 43.6445 15.1653 43.2899 16.024C42.9539 16.864 42.4779 17.6013 41.8619 18.236C41.2459 18.8707 40.5179 19.3747 39.6779 19.748C38.8379 20.1027 37.9325 20.28 36.9619 20.28C35.7672 20.28 34.6565 20 33.6299 19.44V16.92C34.5445 17.592 35.6272 17.928 36.8779 17.928C37.5499 17.928 38.1565 17.816 38.6979 17.592C39.2579 17.3493 39.7245 17.0227 40.0979 16.612C40.4899 16.2013 40.7885 15.716 40.9939 15.156C41.1992 14.5773 41.3019 13.952 41.3019 13.28C41.3019 12.608 41.1992 11.992 40.9939 11.432C40.7885 10.8533 40.4992 10.3587 40.1259 9.948C39.7525 9.53733 39.2952 9.22 38.7539 8.996C38.2312 8.75333 37.6339 8.632 36.9619 8.632C36.3085 8.632 35.7112 8.744 35.1699 8.968C34.6472 9.192 34.1899 9.50933 33.7979 9.92C33.4245 10.3307 33.1352 10.8253 32.9299 11.404C32.7245 11.964 32.6219 12.5893 32.6219 13.28V26.384H30.1019ZM56.2014 20H53.5694V0.399999H56.2014V8.632H64.7134V0.399999H67.3454V20H64.7134V11.096H56.2014V20ZM78.4568 12.104V14.624C77.7474 14.0827 76.8794 13.812 75.8528 13.812C74.9754 13.812 74.2941 13.9893 73.8088 14.344C73.3234 14.68 73.0808 15.1653 73.0808 15.8C73.0808 17.032 73.9954 17.648 75.8248 17.648H79.5208V12.3C79.5208 10.0413 78.4194 8.912 76.2168 8.912H71.7368V6.56H76.3568C78.1674 6.56 79.5581 7.008 80.5288 7.904C81.4994 8.8 81.9848 10.088 81.9848 11.768V20H75.7408C74.1541 20 72.8941 19.6453 71.9608 18.936C71.0274 18.2267 70.5608 17.1907 70.5608 15.828C70.5608 14.4653 71.0554 13.4293 72.0448 12.72C73.0341 12.0107 74.2754 11.656 75.7688 11.656C76.6088 11.656 77.5048 11.8053 78.4568 12.104ZM84.6428 20V12.356C84.6428 10.2093 85.0441 8.72533 85.8468 7.904C86.2388 7.49333 86.7148 7.18533 87.2748 6.98C87.8348 6.77467 88.3201 6.65333 88.7308 6.616C89.1601 6.57867 89.7388 6.56 90.4668 6.56H92.9308V8.912H89.9628C89.5895 8.912 89.3001 8.92133 89.0948 8.94C88.8895 8.95867 88.6468 9.024 88.3668 9.136C88.0868 9.248 87.8441 9.42533 87.6388 9.668C87.2841 10.116 87.1068 11.012 87.1068 12.356V20H84.6428ZM105.243 0.399999H107.763V20H101.183C99.1478 20 97.4958 19.356 96.2265 18.068C94.9572 16.7613 94.3225 15.1187 94.3225 13.14C94.3225 11.1987 94.9758 9.57467 96.2825 8.268C97.6078 6.94267 99.1758 6.28 100.987 6.28C102.144 6.28 103.227 6.56 104.235 7.12V9.64C103.301 8.968 102.219 8.632 100.987 8.632C99.8665 8.632 98.9145 9.052 98.1305 9.892C97.3652 10.7133 96.9825 11.796 96.9825 13.14C96.9825 14.5027 97.3465 15.5947 98.0745 16.416C98.8212 17.2373 99.8572 17.648 101.183 17.648H105.243V0.399999ZM114.761 20H112.297V8.912H110.001L111.121 6.56H114.761V20ZM112.185 3.76C111.943 3.44267 111.821 3.09733 111.821 2.724C111.821 2.35067 111.943 2.01467 112.185 1.716C112.428 1.39867 112.801 1.24 113.305 1.24C113.809 1.24 114.183 1.39867 114.425 1.716C114.668 2.01467 114.789 2.35067 114.789 2.724C114.789 3.09733 114.668 3.44267 114.425 3.76C114.183 4.05867 113.809 4.208 113.305 4.208C112.801 4.208 112.428 4.05867 112.185 3.76ZM125.084 6.28C128.258 6.41067 129.844 7.72667 129.844 10.228C129.844 13.3453 127.8 14.904 123.712 14.904H122.564V12.748H123.908C125.159 12.748 126.027 12.5613 126.512 12.188C126.998 11.796 127.24 11.152 127.24 10.256C127.24 9.67733 127.026 9.248 126.596 8.968C126.167 8.66933 125.616 8.52 124.944 8.52C123.619 8.52 122.574 8.98667 121.808 9.92C121.062 10.8533 120.688 11.9733 120.688 13.28C120.688 14.6613 121.09 15.7813 121.892 16.64C122.714 17.4987 123.778 17.928 125.084 17.928C126.26 17.928 127.222 17.6387 127.968 17.06L129.648 18.712C128.36 19.7573 126.839 20.28 125.084 20.28C122.956 20.28 121.258 19.6547 119.988 18.404C118.719 17.1533 118.084 15.5387 118.084 13.56C118.084 11.3573 118.71 9.57467 119.96 8.212C121.211 6.84933 122.919 6.20533 125.084 6.28Z" fill="#EA7307"/>
</svg>
