<svg width="20" height="21" viewBox="0 0 20 21" fill="none" xmlns="http://www.w3.org/2000/svg">
<path d="M17.0711 13.3167C15.9819 12.2506 14.6855 11.4614 13.2711 10.9836C14.786 9.96229 15.7812 8.25303 15.7812 6.32028C15.7812 3.19997 13.1878 0.661377 10 0.661377C6.81223 0.661377 4.21875 3.19997 4.21875 6.32028C4.21875 8.25303 5.21402 9.96229 6.72898 10.9836C5.31453 11.4614 4.01813 12.2506 2.92895 13.3167C1.0402 15.1655 0 17.6236 0 20.2381H1.5625C1.5625 15.6841 5.34754 11.9792 10 11.9792C14.6525 11.9792 18.4375 15.6841 18.4375 20.2381H20C20 17.6236 18.9598 15.1655 17.0711 13.3167ZM10 10.4498C7.67379 10.4498 5.78125 8.59731 5.78125 6.32028C5.78125 4.04326 7.67379 2.19081 10 2.19081C12.3262 2.19081 14.2188 4.04326 14.2188 6.32028C14.2188 8.59731 12.3262 10.4498 10 10.4498Z" fill="#11182E"/>
</svg>
