<svg width="35" height="30" viewBox="0 0 35 30" fill="none" xmlns="http://www.w3.org/2000/svg">
<path d="M14.0141 10.5359L12.2354 19.4831H15.0802L16.8604 10.5359H14.0141Z" fill="#FBFBFB"/>
<path d="M9.85022 10.5458L7.06392 16.6476L6.76685 15.7262C6.21734 14.6162 4.65737 13.0219 2.82593 12.0172L5.3737 19.4786L8.3839 19.4742L12.8641 10.5439L9.85022 10.5458Z" fill="#FBFBFB"/>
<path d="M5.68675 11.1864C5.52139 10.6414 5.04213 10.4789 4.44726 10.4595H0.0365849L0 10.6376C3.43239 11.3513 5.70358 13.071 6.64601 15.1388L5.68675 11.1864Z" fill="#FBFBFB"/>
<path d="M22.6261 12.251C23.5568 12.2385 24.2315 12.4129 24.7554 12.5935L25.0122 12.697L25.3971 10.7578C24.8337 10.5765 23.9505 10.3821 22.8486 10.3821C20.0374 10.3821 18.0559 11.5957 18.0406 13.3348C18.0223 14.6199 19.452 15.3373 20.532 15.7657C21.6405 16.2047 22.0122 16.4838 22.0071 16.8758C21.9983 17.4747 21.1232 17.7494 20.3059 17.7494C19.1667 17.7494 18.5615 17.6146 17.6272 17.2809L17.2606 17.1379L16.8604 19.1405C17.5262 19.3907 18.7547 19.6059 20.0301 19.6171C23.0205 19.6171 24.9639 18.418 24.9844 16.5597C24.9968 15.5431 24.2381 14.7672 22.5939 14.1307C21.5988 13.7155 20.99 13.4395 20.9959 13.0206C20.9959 12.6487 21.5125 12.251 22.6261 12.251Z" fill="#FBFBFB"/>
<path d="M32.698 10.5459H30.5C29.8173 10.5459 29.3095 10.7052 29.0095 11.2885L24.7854 19.4881H27.7729C27.7729 19.4881 28.2602 18.3855 28.3707 18.1441C28.6978 18.1441 31.6004 18.1478 32.0138 18.1478C32.0987 18.4601 32.3607 19.4881 32.3607 19.4881H34.9999L32.698 10.5459ZM29.1895 16.3127C29.4236 15.7991 30.3229 13.8122 30.3229 13.8122C30.3075 13.8367 30.5548 13.2948 30.7019 12.958L30.8936 13.7294C30.8936 13.7294 31.4387 15.8655 31.5529 16.3127H29.1895Z" fill="#FBFBFB"/>
</svg>
