<svg width="29" height="22" viewBox="0 0 29 22" fill="none" xmlns="http://www.w3.org/2000/svg">
<path d="M19.6735 0.642822C17.761 0.642822 15.9813 1.28589 14.5 2.38675C13.0185 1.28589 11.239 0.642822 9.32645 0.642822C4.18388 0.642822 0 5.28903 0 11C0 16.7109 4.18388 21.3571 9.32645 21.3571C11.239 21.3571 13.0187 20.714 14.5 19.6132C15.9815 20.714 17.761 21.3571 19.6735 21.3571C24.8161 21.3571 29 16.7109 29 11C29 5.28903 24.8161 0.642822 19.6735 0.642822V0.642822ZM19.6735 19.4699C16.8964 19.4699 14.4613 17.8127 13.1276 15.3424H14.1077C14.577 15.3424 14.9573 14.92 14.9573 14.3989C14.9573 13.8779 14.577 13.4553 14.1077 13.4553H12.3735C12.2687 13.0714 12.1875 12.6766 12.1322 12.2718H15.4673C15.9364 12.2718 16.3169 11.8494 16.3169 11.3283C16.3169 10.8073 15.9364 10.3847 15.4673 10.3847H12.0664C12.0926 9.98192 12.1445 9.58679 12.22 9.20149H14.1077C14.577 9.20149 14.9573 8.77884 14.9573 8.2579C14.9573 7.73671 14.577 7.31431 14.1077 7.31431H12.8072C14.0436 4.48525 16.6568 2.53 19.6735 2.53C23.8791 2.53 27.3008 6.32968 27.3008 11C27.3008 15.6702 23.8791 19.4699 19.6735 19.4699Z" fill="#FBFBFB"/>
</svg>
