<svg width="25" height="25" viewBox="0 0 25 25" fill="none" xmlns="http://www.w3.org/2000/svg">
<path d="M25 3.33876C23.4274 3.42732 23.4617 3.42009 23.284 3.43827L24.2153 0.188509C24.2153 0.188509 21.3081 1.49517 20.5711 1.72891C18.6356 -0.396659 15.7585 -0.490574 13.7016 1.05402C12.0173 2.31921 11.1132 4.49185 11.4147 7.03131C8.13656 6.4755 5.37453 4.57691 3.19386 1.37632L2.50416 0.364222L1.98879 1.52057C1.33743 2.98174 1.12114 4.65242 1.37959 6.22475C1.48563 6.86981 1.66588 7.48504 1.91555 8.06112L1.32389 7.781L1.2537 8.98885C1.18256 10.2158 1.51691 11.6481 2.14825 12.8198C2.32601 13.1498 2.55489 13.5122 2.845 13.8697L2.53925 13.8123L2.91233 15.1964C3.40271 17.0148 4.42123 18.4217 5.74303 19.2038C4.42295 19.8882 3.35655 20.3249 1.6037 21.0294L0 21.6735L1.48125 22.663C2.04601 23.0403 4.04167 24.3004 6.01349 24.6784C10.3966 25.5183 15.3315 24.8343 18.6537 21.1786C21.452 18.0994 22.3701 13.7194 22.1794 9.16131C22.1506 8.47127 22.3053 7.81269 22.6151 7.30723C23.2355 6.29513 24.9962 3.34552 25 3.33876ZM21.4437 6.23524C20.9293 7.07442 20.6717 8.14618 20.7178 9.25266C20.9103 13.8503 19.8864 17.4159 17.6744 19.8498C15.0906 22.6931 10.9228 23.8091 6.24027 22.9117C5.39227 22.7493 4.51584 22.3855 3.79047 22.0222C5.26009 21.4044 6.39496 20.8537 8.22773 19.7938L10.7862 18.3142L7.96146 18.0933C6.60839 17.9875 5.48172 17.1863 4.78916 15.8855C5.1569 15.8594 5.51147 15.7867 5.86452 15.6664L8.55865 14.7496L5.84202 13.9368C4.52194 13.5418 3.76949 12.5768 3.37067 11.8366C3.10879 11.3503 2.9377 10.852 2.83508 10.3927C3.10745 10.482 3.42503 10.5456 3.93715 10.6076L6.45161 10.9114L4.45938 9.01262C3.02391 7.64467 2.44865 5.58948 2.87037 3.61375C7.35035 9.29111 12.6104 8.86441 13.1399 9.01449C13.0234 7.63139 13.0203 7.62813 12.9898 7.49646C12.3117 4.56782 13.7978 3.08079 14.468 2.57742C15.868 1.52617 18.0902 1.3677 19.6295 3.09966C19.9619 3.47346 20.4115 3.62051 20.8323 3.4928C21.2099 3.37815 21.5199 3.25673 21.8233 3.1246L21.1916 5.3287L21.998 5.3294C21.8458 5.57876 21.6633 5.87728 21.4437 6.23524Z" fill="#FBFBFB"/>
</svg>
