<svg width="31" height="36" viewBox="0 0 31 36" fill="none" xmlns="http://www.w3.org/2000/svg">
<path d="M18.4421 15.5188H26.2001V0.830688H31V35.795H26.2001V19.9128C24.5178 19.9128 22.8354 19.9128 21.1451 19.9128C20.2441 19.9128 18.4421 16.9783 18.4421 15.5188Z" fill="#EA7307"/>
<path d="M18.9844 29.5124V35.795H14.3519V29.5124C14.3519 25.7506 14.7824 22.2307 13.0841 20.6932C11.4177 19.1245 9.52806 19.2416 4.79991 19.2104V35.795H0V0.830688H4.79991V15.0662C7.31946 15.1364 8.81046 15.1988 9.28886 15.2691L16.4807 0.830688H21.6873L13.6263 16.3617C19.104 18.3285 18.9844 22.6834 18.9844 29.5124Z" fill="#EA7307"/>
</svg>
