<svg width="20" height="20" viewBox="0 0 20 20" fill="none" xmlns="http://www.w3.org/2000/svg">
<path d="M10 20C9.71527 20 9.44077 19.8841 9.22684 19.6734C8.41888 18.8794 7.63992 18.1331 6.95267 17.4749L6.94916 17.4714C4.93423 15.5415 3.19427 13.8747 1.98364 12.2329C0.630341 10.3974 0 8.65709 0 6.75591C0 4.90876 0.563507 3.20464 1.58661 1.95726C2.62192 0.695126 4.04251 0 5.58716 0C6.74164 0 7.79892 0.410249 8.72955 1.21926C9.19922 1.62762 9.62494 2.1274 10 2.71036C10.3752 2.1274 10.8008 1.62762 11.2706 1.21926C12.2012 0.410249 13.2585 0 14.413 0C15.9575 0 17.3782 0.695126 18.4135 1.95726C19.4366 3.20464 20 4.90876 20 6.75591C20 8.65709 19.3698 10.3974 18.0165 12.2327C16.8059 13.8747 15.0661 15.5413 13.0515 17.4711C12.363 18.1304 11.5828 18.8778 10.773 19.6738C10.5592 19.8841 10.2846 20 10 20ZM5.58716 1.31685C4.37363 1.31685 3.25882 1.86121 2.44781 2.84979C1.62476 3.85329 1.17142 5.24046 1.17142 6.75591C1.17142 8.35489 1.70013 9.78493 2.88559 11.3927C4.03137 12.9467 5.73563 14.5791 7.70889 16.4693L7.71255 16.4727C8.4024 17.1336 9.18442 17.8827 9.99832 18.6826C10.8171 17.8812 11.6003 17.1308 12.2916 16.469C14.2647 14.5788 15.9688 12.9467 17.1146 11.3927C18.2999 9.78493 18.8286 8.35489 18.8286 6.75591C18.8286 5.24046 18.3752 3.85329 17.5522 2.84979C16.7413 1.86121 15.6264 1.31685 14.413 1.31685C13.524 1.31685 12.7078 1.63448 11.9872 2.26083C11.3449 2.81926 10.8975 3.52519 10.6352 4.01914C10.5003 4.27314 10.2629 4.82969 10 4.82969C9.73709 4.82969 9.49966 4.27314 9.36478 4.01914C9.10263 3.52519 8.65524 2.81926 8.01285 2.26083C7.29217 1.63448 6.47598 1.31685 5.58716 1.31685Z" fill="white"/>
</svg>
