<svg width="20" height="20" viewBox="0 0 20 20" fill="none" xmlns="http://www.w3.org/2000/svg">
<path d="M6.4438 13.3335H6.44471C6.44548 13.3335 6.44624 13.3333 6.447 13.3333H17.0703C17.3319 13.3333 17.5618 13.1359 17.6337 12.8498L19.9775 3.51649C20.028 3.31527 19.9926 3.09895 19.8819 2.93194C19.7712 2.76493 19.598 2.66666 19.4141 2.66666H5.09248L4.67362 0.522048C4.61396 0.217014 4.37623 0 4.10157 0H0.585939C0.262299 0 0 0.298437 0 0.666666C0 1.03489 0.262299 1.33333 0.585939 1.33333H3.6316C3.70576 1.71337 5.636 11.5963 5.74708 12.1649C5.12437 12.4729 4.68751 13.1793 4.68751 14C4.68751 15.1028 5.47608 16 6.44532 16H17.0703C17.394 16 17.6563 15.7015 17.6563 15.3333C17.6563 14.9651 17.394 14.6666 17.0703 14.6666H6.44532C6.12229 14.6666 5.85939 14.3675 5.85939 14C5.85939 13.633 6.12138 13.3344 6.4438 13.3335ZM18.6373 3.99999L16.6283 12H6.9153L5.35279 3.99999H18.6373Z" fill="white"/>
<path d="M5.85938 18C5.85938 19.1028 6.64795 20 7.61719 20C8.58643 20 9.375 19.1028 9.375 18C9.375 16.8973 8.58643 16 7.61719 16C6.64795 16 5.85938 16.8973 5.85938 18ZM7.61719 17.3334C7.94022 17.3334 8.20312 17.6325 8.20312 18C8.20312 18.3676 7.94022 18.6667 7.61719 18.6667C7.29416 18.6667 7.03125 18.3676 7.03125 18C7.03125 17.6325 7.29416 17.3334 7.61719 17.3334Z" fill="white"/>
<path d="M12.9688 18C12.9688 19.1028 13.7573 20 14.7266 20C15.6958 20 16.4844 19.1028 16.4844 18C16.4844 16.8973 15.6958 16 14.7266 16C13.7573 16 12.9688 16.8973 12.9688 18ZM14.7266 17.3334C15.0496 17.3334 15.3125 17.6325 15.3125 18C15.3125 18.3676 15.0496 18.6667 14.7266 18.6667C14.4035 18.6667 14.1406 18.3676 14.1406 18C14.1406 17.6325 14.4035 17.3334 14.7266 17.3334Z" fill="white"/>
</svg>
