<svg width="20" height="21" viewBox="0 0 20 21" fill="none" xmlns="http://www.w3.org/2000/svg">
<path d="M6.4438 13.7127H6.44471C6.44548 13.7127 6.44624 13.7125 6.447 13.7125H17.0703C17.3319 13.7125 17.5618 13.5193 17.6337 13.2392L19.9775 4.10345C20.028 3.90649 19.9926 3.69475 19.8819 3.53127C19.7712 3.36779 19.598 3.2716 19.4141 3.2716H5.09248L4.67362 1.17238C4.61396 0.873798 4.37623 0.661377 4.10157 0.661377H0.585939C0.262299 0.661377 0 0.953498 0 1.31393C0 1.67437 0.262299 1.96649 0.585939 1.96649H3.6316C3.70576 2.33848 5.636 12.0123 5.74708 12.5688C5.12437 12.8703 4.68751 13.5618 4.68751 14.3651C4.68751 15.4445 5.47608 16.3227 6.44532 16.3227H17.0703C17.394 16.3227 17.6563 16.0306 17.6563 15.6702C17.6563 15.3098 17.394 15.0176 17.0703 15.0176H6.44532C6.12229 15.0176 5.85939 14.7248 5.85939 14.3651C5.85939 14.0058 6.12138 13.7135 6.4438 13.7127V13.7127ZM18.6373 4.57672L16.6283 12.4074H6.9153L5.35279 4.57672H18.6373Z" fill="#11182E"/>
<path d="M5.85938 18.2805C5.85938 19.3599 6.64795 20.2381 7.61719 20.2381C8.58643 20.2381 9.375 19.3599 9.375 18.2805C9.375 17.201 8.58643 16.3228 7.61719 16.3228C6.64795 16.3228 5.85938 17.201 5.85938 18.2805ZM7.61719 17.6279C7.94022 17.6279 8.20312 17.9207 8.20312 18.2805C8.20312 18.6402 7.94022 18.933 7.61719 18.933C7.29416 18.933 7.03125 18.6402 7.03125 18.2805C7.03125 17.9207 7.29416 17.6279 7.61719 17.6279Z" fill="#11182E"/>
<path d="M12.9688 18.2805C12.9688 19.3599 13.7573 20.2381 14.7266 20.2381C15.6958 20.2381 16.4844 19.3599 16.4844 18.2805C16.4844 17.201 15.6958 16.3228 14.7266 16.3228C13.7573 16.3228 12.9688 17.201 12.9688 18.2805ZM14.7266 17.6279C15.0496 17.6279 15.3125 17.9207 15.3125 18.2805C15.3125 18.6402 15.0496 18.933 14.7266 18.933C14.4035 18.933 14.1406 18.6402 14.1406 18.2805C14.1406 17.9207 14.4035 17.6279 14.7266 17.6279Z" fill="#11182E"/>
</svg>
